<svg id="svg" version="1.1" xmlns="http://www.w3.org/2000/svg" xmlns:xlink="http://www.w3.org/1999/xlink" width="400" height="57.1875" viewBox="0, 0, 400,57.1875"><g id="svgg"><path id="path0" d="M124.373 5.831 C 124.058 6.336,124.083 51.626,124.399 52.042 C 124.573 52.272,124.872 52.333,125.810 52.333 C 126.492 52.333,127.000 52.404,127.000 52.500 C 127.000 52.610,131.167 52.667,139.167 52.667 C 147.167 52.667,151.333 52.610,151.333 52.500 C 151.333 52.404,151.861 52.333,152.583 52.333 C 153.306 52.333,153.833 52.263,153.833 52.167 C 153.833 52.075,154.133 52.000,154.500 52.000 C 154.867 52.000,155.167 51.925,155.167 51.833 C 155.167 51.742,155.429 51.667,155.750 51.667 C 156.071 51.667,156.333 51.592,156.333 51.500 C 156.333 51.408,156.558 51.333,156.833 51.333 C 157.108 51.333,157.333 51.268,157.333 51.188 C 157.333 51.107,157.568 50.995,157.854 50.938 C 158.310 50.846,158.347 50.800,158.152 50.565 C 157.964 50.339,157.972 50.267,158.199 50.107 C 161.303 47.920,162.616 46.263,163.631 43.250 C 165.556 37.541,163.823 32.041,158.958 28.425 C 158.181 27.847,158.182 27.806,159.011 26.865 C 164.024 21.169,160.817 9.223,153.665 6.952 C 150.761 6.030,150.245 6.000,137.517 6.000 C 127.371 6.000,125.847 5.968,125.667 5.750 C 125.368 5.390,124.620 5.437,124.373 5.831 M180.042 5.749 C 179.710 6.126,179.739 51.763,180.071 52.095 C 180.495 52.519,214.167 52.445,214.167 52.020 C 214.167 51.848,214.054 51.614,213.917 51.500 C 213.708 51.327,213.667 50.666,213.667 47.480 L 213.667 43.667 201.687 43.667 C 191.747 43.667,189.675 43.628,189.518 43.438 C 189.383 43.276,189.341 41.722,189.373 38.063 L 189.417 32.917 190.085 32.867 C 190.576 32.831,190.851 32.909,191.120 33.159 C 191.479 33.493,191.655 33.500,199.710 33.500 C 208.387 33.500,208.665 33.476,208.039 32.785 C 207.787 32.507,207.739 31.958,207.667 28.525 L 207.583 24.583 198.500 24.500 L 189.417 24.417 189.417 19.417 L 189.417 14.417 190.000 14.370 C 190.436 14.334,190.697 14.429,191.034 14.745 L 191.485 15.167 202.826 15.167 C 212.986 15.167,214.167 15.140,214.167 14.907 C 214.167 14.764,214.242 14.693,214.333 14.750 C 214.614 14.923,214.519 14.686,214.167 14.333 C 213.853 14.020,213.833 13.778,213.833 10.264 C 213.833 8.209,213.788 6.409,213.732 6.264 C 213.641 6.026,212.048 6.000,197.411 6.000 C 183.215 6.000,181.159 5.969,180.940 5.750 C 180.631 5.440,180.314 5.440,180.042 5.749 M135.967 15.413 L 136.292 15.826 142.771 15.877 C 149.639 15.932,150.422 16.013,151.052 16.737 C 152.029 17.860,152.000 17.785,152.000 19.168 C 152.000 19.945,151.931 20.500,151.833 20.500 C 151.742 20.500,151.667 20.638,151.667 20.808 C 151.667 21.218,151.181 22.185,150.810 22.514 C 150.612 22.690,150.568 22.834,150.678 22.945 C 150.967 23.234,150.663 23.639,149.860 24.034 C 149.085 24.416,149.069 24.417,141.583 24.417 L 134.083 24.417 134.039 19.919 C 134.014 17.446,134.031 15.327,134.075 15.211 C 134.232 14.804,135.603 14.950,135.967 15.413 M135.589 33.575 C 135.907 33.708,136.167 33.895,136.167 33.991 C 136.167 34.111,138.610 34.167,143.917 34.167 C 148.972 34.167,151.667 34.225,151.667 34.333 C 151.667 34.425,151.892 34.500,152.167 34.500 C 152.442 34.500,152.667 34.575,152.667 34.667 C 152.667 34.758,152.780 34.833,152.919 34.833 C 153.345 34.833,154.833 36.454,154.833 36.919 C 154.833 37.147,154.908 37.333,155.000 37.333 C 155.096 37.333,155.167 37.861,155.167 38.583 C 155.167 39.306,155.096 39.833,155.000 39.833 C 154.908 39.833,154.833 40.058,154.833 40.333 C 154.833 40.608,154.777 40.833,154.707 40.833 C 154.638 40.833,154.477 41.077,154.350 41.375 C 154.222 41.673,154.012 42.040,153.882 42.192 C 153.752 42.343,153.639 42.718,153.631 43.025 C 153.611 43.765,153.078 44.210,151.679 44.651 C 150.345 45.072,134.606 45.206,134.200 44.800 C 133.835 44.435,133.922 33.729,134.292 33.513 C 134.689 33.282,134.913 33.293,135.589 33.575 " stroke="none" fill="#5c5c5c" fill-rule="evenodd"></path><path id="path1" d="M3.208 5.083 C 2.960 5.364,2.924 7.333,3.167 7.333 C 3.258 7.333,3.333 7.596,3.333 7.917 C 3.333 8.237,3.401 8.500,3.483 8.500 C 3.566 8.500,3.666 8.819,3.706 9.208 C 3.788 10.016,4.135 11.443,4.353 11.873 C 4.434 12.032,4.500 12.384,4.500 12.655 C 4.500 12.925,4.575 13.193,4.667 13.250 C 4.758 13.307,4.833 13.611,4.833 13.927 C 4.833 14.242,4.908 14.500,5.000 14.500 C 5.092 14.500,5.167 14.725,5.167 15.000 C 5.167 15.275,5.242 15.500,5.333 15.500 C 5.425 15.500,5.500 15.762,5.500 16.083 C 5.500 16.404,5.575 16.667,5.667 16.667 C 5.758 16.667,5.833 16.967,5.833 17.333 C 5.833 17.700,5.908 18.000,6.000 18.000 C 6.092 18.000,6.166 18.169,6.165 18.375 C 6.162 18.872,6.660 21.172,6.850 21.539 C 6.933 21.699,7.000 21.975,7.000 22.155 C 7.000 22.334,7.075 22.527,7.167 22.583 C 7.258 22.640,7.333 22.944,7.333 23.260 C 7.333 23.575,7.408 23.833,7.500 23.833 C 7.592 23.833,7.667 24.091,7.667 24.407 C 7.667 24.722,7.742 25.027,7.833 25.083 C 7.925 25.140,8.000 25.444,8.000 25.760 C 8.000 26.075,8.075 26.333,8.167 26.333 C 8.258 26.333,8.333 26.558,8.333 26.833 C 8.333 27.108,8.408 27.333,8.500 27.333 C 8.592 27.333,8.667 27.529,8.667 27.768 C 8.667 28.309,9.144 30.482,9.348 30.873 C 9.432 31.032,9.500 31.351,9.500 31.581 C 9.500 31.811,9.575 32.000,9.667 32.000 C 9.758 32.000,9.833 32.258,9.833 32.573 C 9.833 32.889,9.908 33.193,10.000 33.250 C 10.092 33.307,10.167 33.611,10.167 33.927 C 10.167 34.242,10.242 34.500,10.333 34.500 C 10.425 34.500,10.500 34.762,10.500 35.083 C 10.500 35.404,10.575 35.667,10.667 35.667 C 10.758 35.667,10.833 35.892,10.833 36.167 C 10.833 36.442,10.908 36.667,11.000 36.667 C 11.092 36.667,11.167 36.905,11.167 37.197 C 11.167 37.690,11.466 39.048,11.842 40.262 C 11.929 40.543,12.000 40.900,12.000 41.053 C 12.000 41.207,12.075 41.333,12.167 41.333 C 12.258 41.333,12.333 41.633,12.333 42.000 C 12.333 42.367,12.408 42.667,12.500 42.667 C 12.592 42.667,12.667 42.929,12.667 43.250 C 12.667 43.571,12.742 43.833,12.833 43.833 C 12.925 43.833,13.000 44.133,13.000 44.500 C 13.000 44.867,13.075 45.167,13.167 45.167 C 13.258 45.167,13.333 45.429,13.333 45.750 C 13.333 46.071,13.394 46.333,13.468 46.333 C 13.594 46.333,13.895 47.606,14.109 49.043 C 14.160 49.387,14.269 49.710,14.351 49.761 C 14.433 49.812,14.500 50.077,14.500 50.351 C 14.500 50.657,14.657 51.006,14.909 51.258 L 15.318 51.667 20.171 51.667 C 23.918 51.667,25.069 51.618,25.220 51.452 C 25.563 51.077,25.833 50.516,25.833 50.179 C 25.833 50.000,25.901 49.811,25.983 49.760 C 26.065 49.710,26.185 49.143,26.250 48.501 C 26.314 47.859,26.435 47.333,26.517 47.333 C 26.599 47.333,26.667 47.108,26.667 46.833 C 26.667 46.558,26.742 46.333,26.833 46.333 C 26.925 46.333,27.000 46.071,27.000 45.750 C 27.000 45.429,27.075 45.167,27.167 45.167 C 27.258 45.167,27.333 44.867,27.333 44.500 C 27.333 44.133,27.408 43.833,27.500 43.833 C 27.592 43.833,27.667 43.571,27.667 43.250 C 27.667 42.929,27.742 42.667,27.833 42.667 C 27.925 42.667,28.000 42.442,28.000 42.167 C 28.000 41.892,28.075 41.667,28.167 41.667 C 28.258 41.667,28.333 41.409,28.333 41.093 C 28.333 40.778,28.398 40.479,28.478 40.430 C 28.558 40.381,28.674 39.889,28.736 39.337 C 28.799 38.785,28.921 38.333,29.008 38.333 C 29.095 38.333,29.167 38.033,29.167 37.667 C 29.167 37.300,29.242 37.000,29.333 37.000 C 29.425 37.000,29.500 36.742,29.500 36.427 C 29.500 36.111,29.575 35.807,29.667 35.750 C 29.758 35.693,29.833 35.464,29.833 35.240 C 29.833 35.016,29.908 34.833,30.000 34.833 C 30.092 34.833,30.167 34.533,30.167 34.167 C 30.167 33.800,30.242 33.500,30.333 33.500 C 30.425 33.500,30.500 33.237,30.500 32.917 C 30.500 32.596,30.575 32.333,30.667 32.333 C 30.758 32.333,30.833 32.113,30.833 31.843 C 30.833 31.574,30.904 31.309,30.990 31.256 C 31.077 31.203,31.199 30.636,31.262 29.996 C 31.325 29.357,31.442 28.833,31.522 28.833 C 31.601 28.833,31.667 28.646,31.667 28.417 C 31.667 28.188,31.742 28.000,31.833 28.000 C 31.925 28.000,32.000 27.700,32.000 27.333 C 32.000 26.967,32.075 26.667,32.167 26.667 C 32.258 26.667,32.333 26.404,32.333 26.083 C 32.333 25.762,32.408 25.500,32.500 25.500 C 32.592 25.500,32.667 25.275,32.667 25.000 C 32.667 24.725,32.742 24.500,32.833 24.500 C 32.925 24.500,33.000 24.242,33.000 23.927 C 33.000 23.611,33.075 23.307,33.167 23.250 C 33.258 23.193,33.333 22.893,33.333 22.583 C 33.333 22.273,33.398 21.979,33.478 21.930 C 33.558 21.881,33.674 21.522,33.736 21.132 C 33.867 20.313,34.160 20.537,34.164 21.458 C 34.166 21.756,34.242 22.000,34.333 22.000 C 34.425 22.000,34.500 22.225,34.500 22.500 C 34.500 22.775,34.575 23.000,34.667 23.000 C 34.758 23.000,34.833 23.262,34.833 23.583 C 34.833 23.904,34.908 24.167,35.000 24.167 C 35.092 24.167,35.167 24.467,35.167 24.833 C 35.167 25.200,35.242 25.500,35.333 25.500 C 35.425 25.500,35.500 25.688,35.500 25.917 C 35.500 26.146,35.575 26.333,35.667 26.333 C 35.758 26.333,35.833 26.633,35.833 27.000 C 35.833 27.367,35.899 27.667,35.978 27.667 C 36.058 27.667,36.174 28.114,36.236 28.662 C 36.298 29.209,36.420 29.701,36.508 29.755 C 36.595 29.809,36.667 30.111,36.667 30.427 C 36.667 30.742,36.742 31.000,36.833 31.000 C 36.925 31.000,37.000 31.300,37.000 31.667 C 37.000 32.033,37.075 32.333,37.167 32.333 C 37.258 32.333,37.333 32.516,37.333 32.740 C 37.333 32.964,37.408 33.193,37.500 33.250 C 37.592 33.307,37.667 33.611,37.667 33.927 C 37.667 34.242,37.742 34.500,37.833 34.500 C 37.925 34.500,38.000 34.758,38.000 35.073 C 38.000 35.389,38.075 35.693,38.167 35.750 C 38.258 35.807,38.333 36.036,38.333 36.260 C 38.333 36.484,38.399 36.667,38.478 36.667 C 38.558 36.667,38.675 37.190,38.738 37.830 C 38.801 38.469,38.923 39.036,39.010 39.089 C 39.096 39.143,39.167 39.407,39.167 39.677 C 39.167 39.946,39.242 40.167,39.333 40.167 C 39.425 40.167,39.500 40.429,39.500 40.750 C 39.500 41.071,39.575 41.333,39.667 41.333 C 39.758 41.333,39.833 41.633,39.833 42.000 C 39.833 42.367,39.908 42.667,40.000 42.667 C 40.092 42.667,40.167 42.854,40.167 43.083 C 40.167 43.313,40.242 43.500,40.333 43.500 C 40.425 43.500,40.500 43.800,40.500 44.167 C 40.500 44.533,40.575 44.833,40.667 44.833 C 40.758 44.833,40.833 45.096,40.833 45.417 C 40.833 45.737,40.898 46.000,40.976 46.000 C 41.055 46.000,41.168 46.465,41.227 47.034 C 41.287 47.603,41.410 48.143,41.501 48.234 C 41.592 48.325,41.667 48.647,41.667 48.950 C 41.667 49.252,41.742 49.500,41.833 49.500 C 41.925 49.500,42.000 49.726,42.000 50.002 C 42.000 50.496,42.225 51.027,42.613 51.452 C 42.764 51.617,43.884 51.667,47.496 51.667 L 52.182 51.667 52.591 51.258 C 52.816 51.033,53.000 50.695,53.000 50.508 C 53.000 50.320,53.075 50.167,53.167 50.167 C 53.258 50.167,53.333 49.867,53.333 49.500 C 53.333 49.133,53.402 48.833,53.486 48.833 C 53.570 48.833,53.691 48.271,53.755 47.583 C 53.820 46.896,53.939 46.333,54.020 46.333 C 54.100 46.333,54.167 46.146,54.167 45.917 C 54.167 45.688,54.242 45.500,54.333 45.500 C 54.425 45.500,54.500 45.200,54.500 44.833 C 54.500 44.467,54.575 44.167,54.667 44.167 C 54.758 44.167,54.833 43.904,54.833 43.583 C 54.833 43.262,54.908 43.000,55.000 43.000 C 55.092 43.000,55.167 42.700,55.167 42.333 C 55.167 41.967,55.242 41.667,55.333 41.667 C 55.425 41.667,55.500 41.484,55.500 41.260 C 55.500 41.036,55.575 40.807,55.667 40.750 C 55.758 40.693,55.833 40.393,55.833 40.083 C 55.833 39.773,55.904 39.476,55.990 39.423 C 56.077 39.369,56.199 38.802,56.262 38.163 C 56.325 37.523,56.442 37.000,56.522 37.000 C 56.601 37.000,56.667 36.737,56.667 36.417 C 56.667 36.096,56.742 35.833,56.833 35.833 C 56.925 35.833,57.000 35.608,57.000 35.333 C 57.000 35.058,57.075 34.833,57.167 34.833 C 57.258 34.833,57.333 34.533,57.333 34.167 C 57.333 33.800,57.408 33.500,57.500 33.500 C 57.592 33.500,57.667 33.237,57.667 32.917 C 57.667 32.596,57.742 32.333,57.833 32.333 C 57.925 32.333,58.000 32.033,58.000 31.667 C 58.000 31.300,58.075 31.000,58.167 31.000 C 58.258 31.000,58.333 30.817,58.333 30.593 C 58.333 30.369,58.401 30.145,58.483 30.094 C 58.565 30.043,58.685 29.476,58.750 28.834 C 58.814 28.192,58.935 27.667,59.017 27.667 C 59.099 27.667,59.167 27.367,59.167 27.000 C 59.167 26.633,59.242 26.333,59.333 26.333 C 59.425 26.333,59.500 26.146,59.500 25.917 C 59.500 25.688,59.575 25.500,59.667 25.500 C 59.758 25.500,59.833 25.200,59.833 24.833 C 59.833 24.467,59.908 24.167,60.000 24.167 C 60.092 24.167,60.167 23.904,60.167 23.583 C 60.167 23.262,60.242 23.000,60.333 23.000 C 60.425 23.000,60.500 22.700,60.500 22.333 C 60.500 21.967,60.575 21.667,60.667 21.667 C 60.758 21.667,60.833 21.484,60.833 21.260 C 60.833 21.036,60.901 20.811,60.983 20.760 C 61.065 20.710,61.185 20.143,61.250 19.501 C 61.314 18.859,61.435 18.333,61.517 18.333 C 61.599 18.333,61.667 18.033,61.667 17.667 C 61.667 17.300,61.742 17.000,61.833 17.000 C 61.925 17.000,62.000 16.817,62.000 16.593 C 62.000 16.369,62.075 16.140,62.167 16.083 C 62.258 16.027,62.333 15.722,62.333 15.407 C 62.333 15.091,62.408 14.833,62.500 14.833 C 62.592 14.833,62.667 14.575,62.667 14.260 C 62.667 13.944,62.742 13.640,62.833 13.583 C 62.925 13.527,63.000 13.222,63.000 12.907 C 63.000 12.591,63.075 12.333,63.167 12.333 C 63.258 12.333,63.333 12.113,63.333 11.843 C 63.333 11.574,63.404 11.309,63.490 11.256 C 63.577 11.203,63.699 10.636,63.762 9.996 C 63.825 9.357,63.942 8.833,64.022 8.833 C 64.101 8.833,64.167 8.571,64.167 8.250 C 64.167 7.929,64.242 7.667,64.333 7.667 C 64.425 7.667,64.500 7.442,64.500 7.167 C 64.500 6.892,64.575 6.667,64.667 6.667 C 64.923 6.667,64.864 5.340,64.595 5.071 C 64.399 4.876,63.458 4.833,59.281 4.833 L 54.205 4.833 53.936 5.400 C 53.788 5.712,53.667 6.199,53.667 6.484 C 53.667 6.768,53.592 7.000,53.500 7.000 C 53.408 7.000,53.333 7.225,53.333 7.500 C 53.333 7.775,53.258 8.000,53.167 8.000 C 53.073 8.000,53.000 8.472,53.000 9.083 C 53.000 9.694,52.927 10.167,52.833 10.167 C 52.742 10.167,52.667 10.425,52.667 10.740 C 52.667 11.056,52.592 11.360,52.500 11.417 C 52.408 11.473,52.333 11.778,52.333 12.093 C 52.333 12.409,52.258 12.667,52.167 12.667 C 52.075 12.667,52.000 12.925,52.000 13.240 C 52.000 13.556,51.925 13.860,51.833 13.917 C 51.742 13.973,51.667 14.273,51.667 14.583 C 51.667 14.893,51.596 15.191,51.510 15.244 C 51.423 15.297,51.301 15.864,51.238 16.504 C 51.175 17.143,51.058 17.667,50.978 17.667 C 50.899 17.667,50.833 17.929,50.833 18.250 C 50.833 18.571,50.758 18.833,50.667 18.833 C 50.575 18.833,50.500 19.133,50.500 19.500 C 50.500 19.867,50.425 20.167,50.333 20.167 C 50.242 20.167,50.167 20.425,50.167 20.740 C 50.167 21.056,50.092 21.360,50.000 21.417 C 49.908 21.473,49.833 21.778,49.833 22.093 C 49.833 22.409,49.758 22.667,49.667 22.667 C 49.575 22.667,49.500 22.925,49.500 23.240 C 49.500 23.556,49.425 23.860,49.333 23.917 C 49.242 23.973,49.167 24.273,49.167 24.583 C 49.167 24.893,49.099 25.189,49.016 25.240 C 48.934 25.291,48.814 25.783,48.750 26.333 C 48.686 26.883,48.566 27.333,48.484 27.333 C 48.401 27.333,48.333 27.633,48.333 28.000 C 48.333 28.367,48.258 28.667,48.167 28.667 C 48.075 28.667,48.000 28.929,48.000 29.250 C 48.000 29.571,47.925 29.833,47.833 29.833 C 47.742 29.833,47.667 30.133,47.667 30.500 C 47.667 30.867,47.592 31.167,47.500 31.167 C 47.408 31.167,47.333 31.429,47.333 31.750 C 47.333 32.071,47.258 32.333,47.167 32.333 C 47.075 32.333,47.000 32.633,47.000 33.000 C 47.000 33.367,46.925 33.667,46.833 33.667 C 46.742 33.667,46.667 33.517,46.667 33.333 C 46.667 33.150,46.602 33.000,46.524 33.000 C 46.445 33.000,46.333 32.547,46.275 31.992 C 46.218 31.438,46.094 30.843,46.002 30.670 C 45.909 30.497,45.833 30.130,45.833 29.854 C 45.833 29.579,45.758 29.307,45.667 29.250 C 45.575 29.193,45.500 28.889,45.500 28.573 C 45.500 28.258,45.425 28.000,45.333 28.000 C 45.242 28.000,45.167 27.742,45.167 27.427 C 45.167 27.111,45.092 26.807,45.000 26.750 C 44.908 26.693,44.833 26.389,44.833 26.073 C 44.833 25.758,44.758 25.500,44.667 25.500 C 44.575 25.500,44.500 25.275,44.500 25.000 C 44.500 24.725,44.425 24.500,44.333 24.500 C 44.242 24.500,44.167 24.238,44.167 23.917 C 44.167 23.596,44.101 23.333,44.022 23.333 C 43.942 23.333,43.825 22.810,43.762 22.170 C 43.699 21.531,43.577 20.964,43.490 20.911 C 43.404 20.857,43.333 20.560,43.333 20.250 C 43.333 19.940,43.258 19.640,43.167 19.583 C 43.075 19.527,43.000 19.222,43.000 18.907 C 43.000 18.591,42.925 18.333,42.833 18.333 C 42.742 18.333,42.667 18.033,42.667 17.667 C 42.667 17.300,42.592 17.000,42.500 17.000 C 42.408 17.000,42.333 16.737,42.333 16.417 C 42.333 16.096,42.258 15.833,42.167 15.833 C 42.075 15.833,42.000 15.533,42.000 15.167 C 42.000 14.800,41.925 14.500,41.833 14.500 C 41.742 14.500,41.667 14.237,41.667 13.917 C 41.667 13.596,41.602 13.333,41.524 13.333 C 41.445 13.333,41.333 12.880,41.275 12.326 C 41.218 11.771,41.094 11.176,41.002 11.003 C 40.909 10.830,40.833 10.463,40.833 10.187 C 40.833 9.912,40.758 9.640,40.667 9.583 C 40.575 9.527,40.500 9.222,40.500 8.907 C 40.500 8.591,40.425 8.333,40.333 8.333 C 40.242 8.333,40.167 8.033,40.167 7.667 C 40.167 7.300,40.092 7.000,40.000 7.000 C 39.908 7.000,39.833 6.737,39.833 6.417 C 39.833 6.096,39.758 5.833,39.667 5.833 C 39.575 5.833,39.500 5.715,39.500 5.571 C 39.500 4.865,39.263 4.833,34.045 4.833 C 28.694 4.833,28.667 4.838,28.667 5.700 C 28.667 5.957,28.592 6.167,28.500 6.167 C 28.408 6.167,28.333 6.429,28.333 6.750 C 28.333 7.071,28.258 7.333,28.167 7.333 C 28.075 7.333,28.000 7.558,28.000 7.833 C 28.000 8.108,27.925 8.333,27.833 8.333 C 27.742 8.333,27.667 8.596,27.667 8.917 C 27.667 9.237,27.592 9.500,27.500 9.500 C 27.408 9.500,27.333 9.800,27.333 10.167 C 27.333 10.533,27.258 10.833,27.167 10.833 C 27.075 10.833,27.000 11.059,27.000 11.336 C 27.000 11.612,26.934 11.968,26.854 12.127 C 26.565 12.699,26.307 13.693,26.214 14.588 C 26.162 15.090,26.056 15.500,25.977 15.500 C 25.898 15.500,25.833 15.762,25.833 16.083 C 25.833 16.404,25.758 16.667,25.667 16.667 C 25.575 16.667,25.500 16.967,25.500 17.333 C 25.500 17.700,25.425 18.000,25.333 18.000 C 25.242 18.000,25.167 18.183,25.167 18.407 C 25.167 18.631,25.092 18.860,25.000 18.917 C 24.908 18.973,24.833 19.278,24.833 19.593 C 24.833 19.909,24.758 20.167,24.667 20.167 C 24.575 20.167,24.500 20.467,24.500 20.833 C 24.500 21.200,24.433 21.500,24.351 21.500 C 24.269 21.500,24.161 21.781,24.111 22.125 C 23.893 23.625,23.610 24.833,23.477 24.833 C 23.398 24.833,23.333 25.133,23.333 25.500 C 23.333 25.867,23.258 26.167,23.167 26.167 C 23.075 26.167,23.000 26.429,23.000 26.750 C 23.000 27.071,22.925 27.333,22.833 27.333 C 22.742 27.333,22.667 27.633,22.667 28.000 C 22.667 28.367,22.592 28.667,22.500 28.667 C 22.408 28.667,22.333 28.929,22.333 29.250 C 22.333 29.571,22.258 29.833,22.167 29.833 C 22.075 29.833,22.000 30.058,22.000 30.333 C 22.000 30.608,21.933 30.833,21.851 30.833 C 21.769 30.833,21.661 31.115,21.612 31.458 C 21.340 33.352,20.977 34.041,20.864 32.875 C 20.836 32.577,20.742 32.333,20.656 32.333 C 20.570 32.333,20.500 32.071,20.500 31.750 C 20.500 31.429,20.425 31.167,20.333 31.167 C 20.242 31.167,20.167 30.867,20.167 30.500 C 20.167 30.133,20.092 29.833,20.000 29.833 C 19.908 29.833,19.833 29.571,19.833 29.250 C 19.833 28.929,19.758 28.667,19.667 28.667 C 19.575 28.667,19.500 28.367,19.500 28.000 C 19.500 27.633,19.425 27.333,19.333 27.333 C 19.242 27.333,19.167 27.071,19.167 26.750 C 19.167 26.429,19.100 26.167,19.020 26.167 C 18.939 26.167,18.820 25.604,18.755 24.917 C 18.691 24.229,18.570 23.667,18.486 23.667 C 18.402 23.667,18.333 23.367,18.333 23.000 C 18.333 22.633,18.258 22.333,18.167 22.333 C 18.075 22.333,18.000 22.071,18.000 21.750 C 18.000 21.429,17.925 21.167,17.833 21.167 C 17.742 21.167,17.667 20.867,17.667 20.500 C 17.667 20.133,17.592 19.833,17.500 19.833 C 17.408 19.833,17.333 19.650,17.333 19.427 C 17.333 19.203,17.258 18.973,17.167 18.917 C 17.075 18.860,17.000 18.556,17.000 18.240 C 17.000 17.925,16.925 17.667,16.833 17.667 C 16.742 17.667,16.667 17.367,16.667 17.000 C 16.667 16.633,16.599 16.333,16.517 16.333 C 16.435 16.333,16.314 15.808,16.250 15.166 C 16.185 14.524,16.065 13.957,15.983 13.906 C 15.901 13.855,15.833 13.556,15.833 13.240 C 15.833 12.925,15.758 12.667,15.667 12.667 C 15.575 12.667,15.500 12.409,15.500 12.093 C 15.500 11.778,15.425 11.473,15.333 11.417 C 15.242 11.360,15.167 11.056,15.167 10.740 C 15.167 10.425,15.092 10.167,15.000 10.167 C 14.908 10.167,14.833 9.909,14.833 9.593 C 14.833 9.278,14.758 8.973,14.667 8.917 C 14.575 8.860,14.500 8.556,14.500 8.240 C 14.500 7.925,14.425 7.667,14.333 7.667 C 14.242 7.667,14.167 7.409,14.167 7.093 C 14.167 6.778,14.092 6.473,14.000 6.417 C 13.908 6.360,13.833 6.142,13.833 5.932 C 13.833 4.858,13.704 4.833,8.314 4.840 C 4.299 4.845,3.379 4.889,3.208 5.083 M76.875 5.083 C 76.543 5.459,76.573 51.096,76.905 51.429 C 77.285 51.809,111.086 51.784,111.232 51.403 C 111.435 50.873,111.345 42.745,111.133 42.533 C 110.982 42.382,108.089 42.333,99.133 42.333 L 87.333 42.333 87.333 37.667 L 87.333 33.000 96.179 33.000 C 103.622 33.000,105.062 32.962,105.262 32.762 C 105.614 32.410,105.614 23.923,105.262 23.571 C 105.062 23.371,103.622 23.333,96.179 23.333 L 87.333 23.333 87.333 18.917 L 87.333 14.500 99.133 14.500 C 108.089 14.500,110.982 14.452,111.133 14.300 C 111.279 14.154,111.333 12.893,111.333 9.667 C 111.333 6.441,111.279 5.179,111.133 5.033 C 110.811 4.711,77.160 4.759,76.875 5.083 M125.833 5.070 C 125.833 5.875,125.148 5.833,138.265 5.833 C 146.577 5.833,150.750 5.892,151.289 6.017 C 153.564 6.543,153.655 6.574,155.386 7.425 C 156.978 8.208,158.721 9.863,159.590 11.418 C 162.447 16.526,162.278 24.022,159.239 27.061 C 158.520 27.780,158.473 27.639,159.795 28.707 C 164.442 32.462,166.016 38.788,163.643 44.167 C 162.752 46.185,161.919 47.438,160.636 48.688 C 160.137 49.174,160.055 49.337,160.216 49.523 C 160.327 49.650,160.401 49.725,160.383 49.690 C 160.323 49.578,160.803 49.167,160.994 49.167 C 161.380 49.167,163.494 47.067,163.699 46.480 C 163.791 46.216,163.934 46.000,164.016 46.000 C 164.099 46.000,164.167 45.887,164.167 45.750 C 164.167 45.612,164.242 45.500,164.333 45.500 C 164.425 45.500,164.500 45.350,164.500 45.167 C 164.500 44.983,164.575 44.833,164.667 44.833 C 164.758 44.833,164.833 44.683,164.833 44.500 C 164.833 44.317,164.908 44.167,165.000 44.167 C 165.092 44.167,165.167 43.984,165.167 43.760 C 165.167 43.536,165.242 43.307,165.333 43.250 C 165.425 43.193,165.500 42.964,165.500 42.740 C 165.500 42.516,165.575 42.333,165.667 42.333 C 165.758 42.333,165.833 42.040,165.833 41.681 C 165.833 41.322,165.916 41.000,166.017 40.967 C 166.281 40.879,166.292 35.225,166.028 34.961 C 165.921 34.854,165.833 34.599,165.833 34.393 C 165.833 34.188,165.758 33.973,165.667 33.917 C 165.575 33.860,165.500 33.631,165.500 33.407 C 165.500 33.183,165.425 33.000,165.333 33.000 C 165.242 33.000,165.167 32.850,165.167 32.667 C 165.167 32.483,165.092 32.333,165.000 32.333 C 164.908 32.333,164.833 32.183,164.833 32.000 C 164.833 31.817,164.758 31.667,164.667 31.667 C 164.575 31.667,164.500 31.571,164.500 31.453 C 164.500 31.336,164.350 31.132,164.167 31.000 C 163.983 30.868,163.833 30.640,163.833 30.493 C 163.833 30.347,163.515 29.914,163.125 29.532 C 162.735 29.149,162.073 28.498,161.654 28.085 C 161.234 27.672,160.803 27.333,160.695 27.333 C 160.404 27.333,160.455 27.197,160.917 26.735 C 161.146 26.506,161.333 26.209,161.333 26.076 C 161.333 25.942,161.408 25.833,161.500 25.833 C 161.592 25.833,161.667 25.683,161.667 25.500 C 161.667 25.317,161.742 25.167,161.833 25.167 C 161.925 25.167,162.000 25.017,162.000 24.833 C 162.000 24.650,162.075 24.500,162.167 24.500 C 162.258 24.500,162.333 24.317,162.333 24.093 C 162.333 23.869,162.408 23.640,162.500 23.583 C 162.592 23.527,162.667 23.297,162.667 23.073 C 162.667 22.850,162.742 22.667,162.833 22.667 C 162.930 22.667,163.000 22.139,163.000 21.417 C 163.000 20.694,163.070 20.167,163.167 20.167 C 163.261 20.167,163.333 19.694,163.333 19.083 C 163.333 18.472,163.261 18.000,163.167 18.000 C 163.070 18.000,163.000 17.472,163.000 16.750 C 163.000 16.028,162.930 15.500,162.833 15.500 C 162.742 15.500,162.667 15.167,162.667 14.760 C 162.667 14.353,162.592 13.973,162.500 13.917 C 162.408 13.860,162.333 13.631,162.333 13.407 C 162.333 13.183,162.258 13.000,162.167 13.000 C 162.075 13.000,162.000 12.775,162.000 12.500 C 162.000 12.225,161.925 12.000,161.833 12.000 C 161.742 12.000,161.667 11.850,161.667 11.667 C 161.667 11.483,161.598 11.333,161.513 11.333 C 161.429 11.333,161.313 11.118,161.255 10.856 C 161.197 10.593,161.004 10.221,160.825 10.029 C 160.646 9.838,160.500 9.565,160.500 9.424 C 160.500 9.282,160.433 9.167,160.351 9.167 C 160.270 9.167,159.790 8.754,159.286 8.250 C 158.782 7.746,158.303 7.333,158.222 7.333 C 158.140 7.333,157.965 7.183,157.833 7.000 C 157.701 6.817,157.460 6.667,157.297 6.667 C 157.133 6.667,157.000 6.600,157.000 6.519 C 157.000 6.437,156.737 6.321,156.417 6.261 C 156.096 6.201,155.833 6.080,155.833 5.992 C 155.833 5.905,155.608 5.833,155.333 5.833 C 155.058 5.833,154.833 5.758,154.833 5.667 C 154.833 5.575,154.575 5.500,154.260 5.500 C 153.944 5.500,153.640 5.425,153.583 5.333 C 153.527 5.242,152.964 5.167,152.333 5.167 C 151.702 5.167,151.140 5.092,151.083 5.000 C 150.903 4.708,125.833 4.777,125.833 5.070 M181.098 5.104 C 180.814 5.847,180.440 5.829,197.728 5.874 L 214.083 5.917 214.124 9.833 C 214.165 13.774,214.269 14.500,214.790 14.500 C 215.454 14.500,215.500 14.189,215.500 9.667 C 215.500 6.113,215.456 5.266,215.262 5.071 C 214.875 4.684,181.247 4.717,181.098 5.104 M254.373 5.164 C 254.043 5.693,254.074 51.098,254.405 51.429 C 254.757 51.781,263.910 51.781,264.262 51.429 C 264.464 51.226,264.500 49.189,264.500 37.845 C 264.500 30.505,264.538 24.500,264.584 24.500 C 264.775 24.500,274.833 34.677,274.835 34.872 C 274.836 34.988,275.077 35.271,275.372 35.500 C 275.667 35.729,276.135 36.172,276.412 36.483 C 276.690 36.795,277.244 37.357,277.645 37.733 C 278.046 38.109,278.608 38.672,278.895 38.983 C 279.182 39.295,279.742 39.857,280.140 40.233 C 280.538 40.609,281.025 41.089,281.223 41.300 C 281.421 41.511,281.983 42.074,282.470 42.550 C 282.958 43.027,283.521 43.589,283.720 43.799 C 283.920 44.009,284.496 44.589,285.000 45.086 C 285.504 45.584,285.982 46.059,286.062 46.142 C 286.252 46.338,288.329 48.415,288.525 48.604 C 288.608 48.685,289.077 49.163,289.568 49.667 C 290.059 50.171,290.721 50.827,291.039 51.125 L 291.619 51.667 293.776 51.667 C 295.232 51.667,295.998 51.602,296.133 51.467 C 296.424 51.176,296.424 5.324,296.133 5.033 C 295.848 4.748,286.652 4.748,286.367 5.033 C 286.214 5.186,286.167 8.504,286.167 18.950 C 286.167 26.494,286.127 32.667,286.079 32.667 C 285.999 32.667,285.040 31.785,284.150 30.894 C 283.954 30.699,283.382 30.126,282.878 29.622 C 282.374 29.118,281.811 28.556,281.628 28.372 C 281.444 28.189,280.882 27.626,280.378 27.122 C 279.874 26.618,279.311 26.056,279.128 25.872 C 278.944 25.689,278.382 25.126,277.878 24.622 C 277.374 24.118,276.811 23.556,276.628 23.372 C 276.444 23.189,275.889 22.618,275.394 22.103 C 274.898 21.588,274.419 21.167,274.330 21.167 C 274.240 21.167,274.166 21.035,274.166 20.875 C 274.165 20.715,273.509 19.935,272.707 19.143 C 271.906 18.351,271.015 17.451,270.728 17.143 C 270.442 16.835,269.879 16.276,269.478 15.900 C 269.078 15.524,268.515 14.962,268.228 14.650 C 267.942 14.338,267.379 13.776,266.978 13.400 C 266.578 13.024,266.015 12.462,265.728 12.150 C 265.442 11.838,264.879 11.276,264.478 10.900 C 264.078 10.524,263.515 9.962,263.228 9.650 C 262.942 9.338,262.379 8.776,261.978 8.400 C 261.578 8.024,261.012 7.462,260.721 7.150 C 260.431 6.838,259.782 6.190,259.279 5.708 L 258.366 4.833 256.473 4.833 C 254.765 4.833,254.560 4.866,254.373 5.164 M311.367 5.033 C 311.076 5.324,311.076 51.176,311.367 51.467 C 311.708 51.808,321.100 51.747,321.232 51.403 C 321.288 51.258,321.333 47.058,321.333 42.070 L 321.333 33.000 329.730 33.000 C 337.332 33.000,338.147 32.974,338.355 32.725 C 338.665 32.351,338.782 24.515,338.488 23.805 L 338.293 23.333 329.813 23.333 L 321.333 23.333 321.333 18.917 L 321.333 14.500 332.679 14.500 C 342.289 14.500,344.060 14.464,344.262 14.262 C 344.456 14.068,344.500 13.221,344.500 9.667 C 344.500 6.113,344.456 5.266,344.262 5.071 C 343.938 4.747,311.690 4.710,311.367 5.033 M353.875 5.083 C 353.551 5.451,353.578 13.935,353.905 14.262 C 354.104 14.461,355.344 14.500,361.488 14.500 L 368.833 14.500 368.833 32.659 C 368.833 46.084,368.884 50.928,369.027 51.242 L 369.220 51.667 374.122 51.667 C 378.148 51.667,379.066 51.624,379.262 51.429 C 379.465 51.225,379.500 48.522,379.500 32.845 L 379.500 14.500 386.929 14.500 C 393.144 14.500,394.396 14.461,394.595 14.262 C 394.789 14.068,394.833 13.221,394.833 9.667 C 394.833 6.113,394.789 5.266,394.595 5.071 C 394.238 4.714,354.189 4.726,353.875 5.083 M189.742 14.877 C 189.697 14.993,189.681 17.112,189.706 19.586 L 189.750 24.083 198.651 24.126 C 204.887 24.157,207.620 24.225,207.776 24.355 C 207.952 24.501,208.000 25.369,208.000 28.360 C 208.000 32.348,208.110 33.000,208.781 33.000 C 209.455 33.000,209.500 32.700,209.500 28.167 C 209.500 24.613,209.456 23.766,209.262 23.571 C 209.062 23.371,207.622 23.333,200.179 23.333 L 191.333 23.333 191.333 19.286 L 191.333 15.239 190.849 14.953 C 190.276 14.614,189.854 14.585,189.742 14.877 M134.500 19.833 L 134.500 24.333 140.838 24.333 C 147.653 24.333,149.333 24.194,149.333 23.629 C 149.333 23.351,148.940 23.333,142.750 23.333 L 136.167 23.333 136.167 19.609 C 136.167 15.461,136.133 15.333,135.029 15.333 L 134.500 15.333 134.500 19.833 M189.667 38.149 C 189.667 42.538,189.698 43.143,189.930 43.232 C 190.075 43.288,195.550 43.333,202.097 43.333 C 208.644 43.333,214.015 43.352,214.034 43.375 C 214.053 43.398,214.109 45.254,214.159 47.500 C 214.250 51.577,214.251 51.583,214.625 51.637 C 215.455 51.754,215.500 51.517,215.500 47.000 C 215.500 43.590,215.456 42.765,215.262 42.571 C 215.060 42.370,213.222 42.333,203.179 42.333 L 191.333 42.333 191.333 37.950 C 191.333 33.120,191.343 33.167,190.300 33.167 L 189.667 33.167 189.667 38.149 M134.622 33.767 C 134.555 33.834,134.500 36.314,134.500 39.278 L 134.500 44.667 142.321 44.667 C 150.361 44.667,151.757 44.571,151.964 44.009 C 152.016 43.867,152.139 43.690,152.238 43.617 C 152.336 43.543,152.004 43.531,151.500 43.590 C 150.996 43.648,147.340 43.730,143.375 43.771 L 136.167 43.847 136.164 39.048 C 136.163 36.409,136.106 34.163,136.039 34.057 C 135.889 33.821,134.792 33.597,134.622 33.767 M232.333 42.500 C 232.333 42.592,232.182 42.667,231.998 42.667 C 231.410 42.667,229.833 43.849,229.833 44.291 C 229.833 44.406,229.758 44.500,229.667 44.500 C 229.575 44.500,229.500 44.644,229.500 44.819 C 229.500 44.995,229.415 45.167,229.310 45.202 C 229.183 45.245,229.120 45.892,229.120 47.167 C 229.120 48.442,229.183 49.089,229.310 49.131 C 229.415 49.166,229.500 49.307,229.500 49.444 C 229.500 49.581,229.798 49.968,230.161 50.305 C 231.132 51.203,231.301 51.333,231.493 51.333 C 231.589 51.333,231.667 51.408,231.667 51.500 C 231.667 51.604,232.611 51.667,234.167 51.667 C 235.722 51.667,236.667 51.604,236.667 51.500 C 236.667 51.408,236.817 51.333,237.000 51.333 C 237.183 51.333,237.333 51.258,237.333 51.167 C 237.333 51.075,237.460 51.000,237.616 51.000 C 237.998 51.000,238.833 50.178,238.833 49.802 C 238.833 49.636,238.908 49.500,239.000 49.500 C 239.092 49.500,239.167 49.275,239.167 49.000 C 239.167 48.725,239.242 48.500,239.333 48.500 C 239.431 48.500,239.500 47.944,239.500 47.167 C 239.500 46.389,239.431 45.833,239.333 45.833 C 239.242 45.833,239.167 45.608,239.167 45.333 C 239.167 45.058,239.092 44.833,239.000 44.833 C 238.908 44.833,238.833 44.699,238.833 44.535 C 238.833 44.187,237.604 43.000,237.244 43.000 C 237.110 43.000,237.000 42.925,237.000 42.833 C 237.000 42.742,236.817 42.667,236.593 42.667 C 236.369 42.667,236.140 42.592,236.083 42.500 C 236.025 42.405,235.193 42.333,234.157 42.333 C 233.052 42.333,232.333 42.399,232.333 42.500 " stroke="none" fill="#fbfbfb" fill-rule="evenodd"></path><path id="path2" d="M129.083 5.953 C 135.877 6.062,151.296 6.073,151.036 5.970 C 150.879 5.908,145.237 5.868,138.500 5.883 C 131.762 5.897,127.525 5.929,129.083 5.953 M197.792 5.958 L 214.000 6.002 214.000 9.969 C 214.000 13.199,214.045 13.996,214.245 14.260 C 214.379 14.438,214.492 14.505,214.495 14.408 C 214.498 14.312,214.426 14.160,214.336 14.070 C 214.241 13.975,214.154 12.238,214.128 9.911 L 214.083 5.917 197.833 5.915 L 181.583 5.914 197.792 5.958 M151.681 6.226 C 151.719 6.259,152.012 6.334,152.333 6.392 C 152.744 6.468,152.843 6.451,152.667 6.336 C 152.441 6.188,151.515 6.085,151.681 6.226 M154.847 7.229 C 155.019 7.382,156.000 7.833,156.000 7.759 C 156.000 7.663,155.076 7.167,154.897 7.167 C 154.832 7.167,154.809 7.195,154.847 7.229 M156.667 8.333 C 156.987 8.603,157.317 8.826,157.398 8.829 C 157.479 8.831,157.263 8.608,156.917 8.333 C 156.106 7.689,155.901 7.689,156.667 8.333 M158.340 9.769 C 158.348 9.932,159.333 11.129,159.333 10.975 C 159.333 10.922,159.108 10.596,158.833 10.250 C 158.558 9.904,158.336 9.687,158.340 9.769 M159.784 12.079 C 160.030 12.580,160.259 12.963,160.294 12.929 C 160.369 12.854,159.528 11.167,159.416 11.167 C 159.372 11.167,159.538 11.577,159.784 12.079 M189.575 14.711 C 189.531 14.826,189.515 17.020,189.539 19.586 L 189.583 24.250 198.667 24.333 L 207.750 24.417 207.797 28.333 C 207.842 32.022,207.865 32.274,208.192 32.667 L 208.540 33.083 208.270 32.631 C 208.042 32.249,208.000 31.581,208.000 28.360 C 208.000 25.369,207.952 24.501,207.776 24.355 C 207.620 24.225,204.887 24.157,198.651 24.126 L 189.750 24.083 189.706 19.454 C 189.656 14.306,189.661 14.287,190.734 14.903 L 191.245 15.196 190.930 14.848 C 190.582 14.463,189.704 14.374,189.575 14.711 M134.268 15.430 C 134.098 15.873,134.158 23.896,134.333 24.167 C 134.440 24.331,134.496 22.869,134.497 19.875 L 134.500 15.333 135.029 15.333 C 135.319 15.333,135.713 15.465,135.904 15.625 C 136.250 15.916,136.250 15.916,135.933 15.542 C 135.545 15.084,134.430 15.009,134.268 15.430 M161.109 15.917 C 161.165 16.283,161.238 16.615,161.272 16.653 C 161.398 16.796,161.304 15.903,161.159 15.583 C 161.054 15.351,161.039 15.452,161.109 15.917 M161.562 19.583 C 161.563 20.592,161.590 20.983,161.623 20.452 C 161.657 19.922,161.656 19.097,161.623 18.619 C 161.589 18.141,161.562 18.575,161.562 19.583 M161.187 22.583 C 161.173 22.767,161.124 23.104,161.076 23.333 L 160.991 23.750 161.169 23.341 C 161.267 23.116,161.317 22.779,161.280 22.591 C 161.214 22.259,161.211 22.259,161.187 22.583 M149.333 23.688 C 149.333 23.859,149.408 24.000,149.500 24.000 C 149.592 24.000,149.667 23.925,149.667 23.833 C 149.667 23.742,149.821 23.667,150.010 23.667 C 150.199 23.667,150.312 23.601,150.263 23.521 C 150.081 23.226,149.333 23.360,149.333 23.688 M148.000 24.167 C 147.594 24.297,147.596 24.300,148.083 24.305 C 148.358 24.308,148.733 24.245,148.917 24.167 C 149.372 23.971,148.611 23.971,148.000 24.167 M159.859 26.042 C 159.674 26.340,159.293 26.804,159.012 27.073 C 158.346 27.710,158.365 27.807,159.287 28.500 C 160.381 29.322,161.771 30.763,162.460 31.792 C 163.070 32.701,163.321 32.940,162.983 32.292 C 162.560 31.477,160.864 29.571,159.795 28.707 C 158.470 27.637,158.517 27.783,159.259 27.041 C 159.794 26.506,160.453 25.500,160.268 25.500 C 160.227 25.500,160.043 25.744,159.859 26.042 M189.611 33.111 C 189.342 33.380,189.489 43.293,189.764 43.399 C 189.909 43.454,195.376 43.500,201.912 43.500 C 212.596 43.500,213.808 43.527,213.899 43.764 C 213.954 43.909,214.000 45.704,214.000 47.754 C 214.000 49.803,214.056 51.515,214.125 51.558 C 214.228 51.622,214.137 43.506,214.033 43.375 C 214.015 43.352,208.644 43.333,202.097 43.333 C 195.550 43.333,190.075 43.288,189.930 43.232 C 189.698 43.143,189.667 42.539,189.667 38.159 L 189.667 33.187 190.292 33.121 L 190.917 33.056 190.319 33.028 C 189.991 33.013,189.672 33.050,189.611 33.111 M134.367 33.700 C 134.057 34.010,134.083 44.390,134.394 44.648 C 134.558 44.784,136.802 44.824,142.436 44.792 L 150.250 44.747 142.373 44.707 L 134.495 44.667 134.539 39.208 L 134.583 33.750 135.154 33.778 C 135.549 33.797,135.652 33.759,135.487 33.655 C 135.151 33.443,134.602 33.465,134.367 33.700 M163.695 34.009 C 163.792 34.288,163.903 34.486,163.941 34.448 C 164.023 34.366,163.709 33.500,163.596 33.500 C 163.553 33.500,163.597 33.729,163.695 34.009 M164.370 36.000 C 164.368 36.229,164.427 36.604,164.500 36.833 C 164.679 37.394,164.679 36.788,164.500 36.083 C 164.386 35.634,164.372 35.626,164.370 36.000 M164.417 40.500 C 164.352 40.970,164.334 41.390,164.377 41.433 C 164.420 41.476,164.507 41.125,164.569 40.653 C 164.632 40.181,164.650 39.761,164.609 39.720 C 164.568 39.679,164.481 40.030,164.417 40.500 M164.083 42.167 C 164.020 42.455,164.003 42.725,164.045 42.768 C 164.088 42.810,164.171 42.605,164.229 42.313 C 164.368 41.618,164.233 41.483,164.083 42.167 M163.833 43.043 C 163.833 43.066,163.760 43.342,163.670 43.657 C 163.580 43.971,163.570 44.158,163.648 44.072 C 163.818 43.886,164.043 43.000,163.920 43.000 C 163.872 43.000,163.833 43.019,163.833 43.043 M152.234 43.556 C 152.133 43.671,152.015 43.872,151.971 44.003 C 151.928 44.133,151.560 44.335,151.154 44.451 C 150.444 44.655,150.439 44.660,151.033 44.593 C 151.937 44.491,152.833 44.021,152.833 43.648 C 152.833 43.292,152.508 43.242,152.234 43.556 M162.091 46.750 C 161.744 47.254,160.987 48.109,160.408 48.650 C 159.829 49.191,159.401 49.679,159.456 49.734 C 159.629 49.906,160.308 49.842,160.433 49.641 C 160.503 49.527,160.479 49.494,160.373 49.559 C 159.915 49.842,160.122 49.189,160.657 48.668 C 161.377 47.966,162.382 46.727,162.650 46.208 C 162.983 45.568,162.749 45.794,162.091 46.750 " stroke="none" fill="#b4b4b4" fill-rule="evenodd"></path><path id="path3" d="M157.333 8.885 C 157.333 8.914,157.577 9.158,157.875 9.427 L 158.417 9.917 157.927 9.375 C 157.471 8.870,157.333 8.757,157.333 8.885 M137.697 24.458 C 139.502 24.485,142.502 24.485,144.364 24.458 C 146.226 24.431,144.750 24.409,141.083 24.409 C 137.417 24.409,135.893 24.431,137.697 24.458 M152.833 43.673 C 152.833 43.956,152.873 43.977,153.066 43.798 C 153.306 43.577,153.266 43.333,152.990 43.333 C 152.904 43.333,152.833 43.486,152.833 43.673 " stroke="none" fill="#acacac" fill-rule="evenodd"></path><path id="path4" d="M125.667 5.750 C 125.781 5.888,125.996 5.991,126.145 5.981 C 126.374 5.964,126.371 5.949,126.125 5.885 C 125.965 5.843,125.833 5.739,125.833 5.654 C 125.833 5.570,125.749 5.500,125.646 5.500 C 125.517 5.500,125.523 5.577,125.667 5.750 M150.083 6.167 C 150.358 6.237,150.808 6.294,151.083 6.294 L 151.583 6.294 151.083 6.167 C 150.808 6.097,150.358 6.039,150.083 6.039 L 149.583 6.039 150.083 6.167 M213.732 6.264 C 213.788 6.409,213.833 8.194,213.833 10.232 C 213.833 13.333,213.876 13.989,214.093 14.260 C 214.343 14.572,214.346 14.571,214.176 14.219 C 214.068 13.996,214.000 12.342,214.000 9.928 C 214.000 7.167,213.945 6.000,213.816 6.000 C 213.714 6.000,213.677 6.119,213.732 6.264 M152.167 6.500 C 152.304 6.589,152.567 6.657,152.750 6.652 L 153.083 6.643 152.750 6.500 C 152.252 6.286,151.835 6.286,152.167 6.500 M154.514 7.229 C 154.685 7.382,155.667 7.833,155.667 7.759 C 155.667 7.663,154.743 7.167,154.564 7.167 C 154.498 7.167,154.476 7.195,154.514 7.229 M156.167 8.115 C 156.396 8.277,157.071 8.860,157.667 9.409 L 158.750 10.407 157.790 9.405 C 157.261 8.854,156.586 8.271,156.290 8.111 C 155.770 7.830,155.766 7.830,156.167 8.115 M160.033 13.004 C 160.224 13.464,160.414 13.808,160.454 13.768 C 160.541 13.682,159.892 12.167,159.769 12.167 C 159.723 12.167,159.842 12.543,160.033 13.004 M160.523 14.167 C 160.523 14.304,160.588 14.567,160.667 14.750 C 160.757 14.960,160.810 14.991,160.810 14.833 C 160.810 14.696,160.745 14.433,160.667 14.250 C 160.576 14.040,160.523 14.009,160.523 14.167 M189.409 14.544 C 189.364 14.659,189.348 16.928,189.372 19.585 L 189.417 24.417 198.500 24.500 L 207.583 24.583 207.671 28.417 L 207.759 32.250 207.796 28.393 C 207.829 25.007,207.801 24.523,207.570 24.434 C 207.425 24.379,203.299 24.333,198.401 24.333 L 189.495 24.333 189.539 19.458 L 189.583 14.583 190.193 14.583 C 190.528 14.583,190.767 14.527,190.724 14.458 C 190.594 14.248,189.495 14.320,189.409 14.544 M134.075 15.211 C 133.848 15.803,134.087 24.390,134.333 24.465 C 134.535 24.527,134.543 24.499,134.375 24.321 C 134.005 23.929,134.083 15.399,134.458 15.180 C 134.735 15.019,134.734 15.010,134.453 15.005 C 134.290 15.002,134.120 15.095,134.075 15.211 M160.862 15.417 C 160.859 15.600,160.921 15.900,161.000 16.083 C 161.183 16.508,161.183 16.070,161.000 15.500 C 160.893 15.165,160.866 15.149,160.862 15.417 M161.196 17.333 C 161.190 17.563,161.248 18.050,161.324 18.417 L 161.462 19.083 161.461 18.500 C 161.460 17.765,161.212 16.672,161.196 17.333 M161.250 21.167 C 161.185 21.637,161.170 22.059,161.216 22.105 C 161.262 22.151,161.352 21.803,161.417 21.333 C 161.481 20.863,161.497 20.441,161.451 20.395 C 161.405 20.349,161.315 20.697,161.250 21.167 M160.917 23.196 C 160.721 24.134,159.724 26.055,159.011 26.865 C 158.182 27.806,158.181 27.848,158.958 28.422 C 160.065 29.239,161.916 31.220,162.574 32.292 C 163.350 33.555,163.530 33.657,162.885 32.469 C 162.352 31.485,160.187 29.124,159.176 28.423 C 158.337 27.841,158.338 27.813,159.229 26.821 C 160.148 25.800,161.426 23.037,161.120 22.732 C 161.072 22.683,160.980 22.892,160.917 23.196 M150.241 23.077 C 150.059 23.215,150.008 23.325,150.125 23.328 C 150.424 23.336,150.383 23.667,150.083 23.667 C 149.946 23.667,149.833 23.730,149.833 23.807 C 149.833 23.884,149.402 24.042,148.875 24.159 C 147.564 24.449,147.449 24.512,148.360 24.439 C 149.257 24.368,150.589 23.776,150.741 23.381 C 150.897 22.975,150.608 22.800,150.241 23.077 M189.444 32.944 C 189.231 33.158,189.316 43.250,189.533 43.467 C 189.685 43.619,192.615 43.667,201.700 43.667 L 213.667 43.667 213.672 47.458 C 213.678 51.264,213.895 52.494,214.461 51.928 C 214.527 51.862,214.450 51.735,214.290 51.646 C 214.028 51.499,214.000 51.122,213.997 47.700 C 213.996 45.619,213.936 43.823,213.863 43.709 C 213.761 43.548,211.063 43.493,201.658 43.459 L 189.583 43.417 189.539 38.221 C 189.498 33.376,189.515 33.020,189.789 32.949 C 190.022 32.888,190.029 32.868,189.819 32.853 C 189.674 32.842,189.506 32.883,189.444 32.944 M134.292 33.513 C 133.922 33.729,133.835 44.435,134.200 44.800 C 134.419 45.019,150.489 45.080,151.036 44.863 C 151.193 44.801,147.481 44.750,142.786 44.750 L 134.250 44.750 134.206 39.353 C 134.160 33.718,134.175 33.588,134.887 33.449 C 135.212 33.386,135.215 33.377,134.917 33.361 C 134.733 33.351,134.452 33.420,134.292 33.513 M135.583 33.699 C 135.767 33.803,135.972 33.970,136.039 34.069 C 136.123 34.194,136.162 34.187,136.164 34.048 C 136.166 33.936,136.022 33.767,135.844 33.673 C 135.406 33.438,135.166 33.462,135.583 33.699 M163.352 33.583 C 163.355 33.675,163.502 34.050,163.679 34.417 C 163.855 34.783,163.953 34.896,163.896 34.667 C 163.778 34.195,163.344 33.328,163.352 33.583 M164.028 35.333 C 164.037 35.766,164.299 36.478,164.305 36.083 C 164.308 35.900,164.245 35.600,164.167 35.417 C 164.079 35.212,164.025 35.180,164.028 35.333 M164.408 38.533 C 164.402 39.820,164.439 40.206,164.523 39.750 C 164.673 38.945,164.674 37.560,164.525 37.033 C 164.465 36.821,164.413 37.496,164.408 38.533 M164.189 40.917 C 164.174 41.100,164.120 41.438,164.070 41.667 C 163.990 42.026,164.003 42.043,164.166 41.787 C 164.270 41.625,164.324 41.287,164.286 41.037 C 164.241 40.741,164.207 40.699,164.189 40.917 M153.000 43.146 C 153.000 43.356,153.489 43.733,153.608 43.614 C 153.779 43.444,153.524 43.000,153.255 43.000 C 153.115 43.000,153.000 43.066,153.000 43.146 M162.886 44.978 C 162.502 45.769,161.819 46.867,161.369 47.417 C 160.671 48.271,160.113 48.744,158.193 50.114 C 157.990 50.258,157.966 50.361,158.101 50.499 C 158.364 50.765,159.719 50.180,159.487 49.901 C 159.373 49.764,159.742 49.283,160.732 48.283 C 162.017 46.983,163.954 43.880,163.653 43.604 C 163.615 43.568,163.269 44.187,162.886 44.978 M153.000 43.820 C 153.000 43.904,152.651 44.106,152.223 44.269 C 151.796 44.432,151.526 44.592,151.624 44.625 C 151.859 44.703,153.333 44.005,153.333 43.815 C 153.333 43.733,153.258 43.667,153.167 43.667 C 153.075 43.667,153.000 43.735,153.000 43.820 " stroke="none" fill="#a4a4a4" fill-rule="evenodd"></path></g></svg>