<?xml version="1.0" encoding="UTF-8"?> <svg xmlns="http://www.w3.org/2000/svg" width="132" height="110" viewBox="0 0 132 110"> <path fill="#41AAE1" d="M129.900628,18.7964112 C126.967794,20.0992986 123.923286,21.1271642 120.799286,21.8713028 C124.241575,18.5942557 126.829729,14.4953675 128.28987,9.92026919 L128.28987,9.92026919 C128.70664,8.61415763 127.290589,7.48473062 126.113337,8.18405325 L126.113337,8.18405325 C121.767349,10.766614 117.086015,12.7040182 112.199032,13.943067 C111.9155,14.014966 111.622957,14.0513991 111.329449,14.0513991 C110.439268,14.0513991 109.573868,13.7202768 108.893198,13.1192914 C103.693719,8.52839469 97.0064205,6 90.0635897,6 C87.05931,6 84.0260657,6.46911684 81.0478542,7.39445384 C71.8203548,10.2617089 64.7005178,17.8871951 62.4666982,27.2953252 C61.6286539,30.8241801 61.401764,34.3562591 61.7918215,37.7932251 C61.8365558,38.1881861 61.6502164,38.4638526 61.5353233,38.5931419 C61.3335361,38.8198011 61.0474295,38.9497352 60.7503808,38.9497352 C60.7172323,38.9497352 60.6831184,38.9481231 60.6493263,38.9448989 C40.4506545,37.064885 22.2363843,27.3159599 9.36158968,11.4943093 L9.36158968,11.4943093 C8.70505722,10.6872994 7.44605968,10.7862814 6.92276468,11.6855027 L6.92276468,11.6855027 C4.4015513,16.0187881 3.0691766,20.9749834 3.0691766,26.0182312 C3.0691766,33.7472133 6.16871784,41.0309374 11.5526059,46.3408242 C9.28853435,45.8030325 7.09719635,44.9560428 5.06162389,43.8233917 L5.06162389,43.8233917 C4.0768252,43.2752826 2.86513661,43.9797639 2.85129794,45.1082237 L2.85129794,45.1082237 C2.71033655,56.5901405 9.4204845,66.8068927 19.4725114,71.4074619 C19.2700806,71.4122982 19.0676497,71.4145551 18.8648971,71.4145551 C17.2715185,71.4145551 15.6581865,71.2604397 14.0702791,70.9564004 L14.0702791,70.9564004 C12.9612542,70.74425 12.0295574,71.7982314 12.3739151,72.8754268 L12.3739151,72.8754268 C15.636624,83.0802496 24.4071253,90.6022399 34.9026334,92.3100832 C26.1919924,98.168079 16.0482441,101.258124 5.4906228,101.258124 L2.19927109,101.25619 C1.1851859,101.25619 0.327509914,101.918434 0.0690807152,102.902451 C-0.185486528,103.871637 0.283419254,104.894022 1.14817549,105.397959 C13.0449299,112.334118 26.6148766,116 40.396909,116 C52.460693,116 63.7453274,113.601539 73.937672,108.871681 C83.2813519,104.535494 91.5382131,98.3370255 98.4787911,90.448447 C104.944348,83.0999171 110.000292,74.6168014 113.505661,65.2351095 C116.847218,56.2922271 118.613419,46.7499714 118.613419,37.6397546 L118.613419,37.2057812 C118.613097,35.742975 119.273491,34.3665765 120.425641,33.4296325 C124.797697,29.8733722 128.604942,25.6871089 131.741171,20.9872352 L131.741171,20.9872352 C132.569239,19.7462519 131.263254,18.1909119 129.900628,18.7964112 L129.900628,18.7964112 Z" transform="translate(0 -6)"></path> </svg> 