<?xml version="1.0" standalone="yes"?>
<svg xmlns="http://www.w3.org/2000/svg" width="1280" height="183">
<path style="fill:#010101; stroke:none;" d="M0 0L0 183L1280 183L1280 0L0 0z"/>
<path style="fill:#ffffff; stroke:none;" d="M551 46L551 160L665 160L665 46L551 46M408 49L408 163L522 163L522 49L408 49M134 53L134 152L153.972 150.397L155 132L174 132L174 112L192 112L192 132L211 132L211 152L231.972 150.397L233 125L233 53L211 53L211 112L194 112L194 92L172 92L172 112L155 112L155 53L134 53M301 53L301 152L346 152L360.972 150.397L362 131L322 131L322 112L362 112L362 92L322 92L322 73L362 73L362 53L301 53z"/>
<path style="fill:#9a9a9a; stroke:none;" d="M428 53L428 151L429 151L429 83L428 53z"/>
<path style="fill:#313131; stroke:none;" d="M429 53L429 151L430 151L430 83L429 53z"/>
<path style="fill:#010101; stroke:none;" d="M430 53L430 151L487 151L487 131L448 131L449.028 113.434L459 111L487 111L487 92L448 93L448 73L487 73L487 53L430 53z"/>
<path style="fill:#9a9a9a; stroke:none;" d="M487 53L487 73L488 73L487 53M574 53L574 151L575 151L575 83L574 53z"/>
<path style="fill:#313131; stroke:none;" d="M575 53L575 151L576 151L576 83L575 53z"/>
<path style="fill:#010101; stroke:none;" d="M576 53L576 151L633 151L633 131L594 131L594 112L633 112L633 92L594 92L594 73L633 73L633 53L576 53z"/>
<path style="fill:#9a9a9a; stroke:none;" d="M633 53L633 73L634 73L633 53z"/>
<path style="fill:#ffffff; stroke:none;" d="M790 53L790 152L811 152L811 93L828 93L828 113L848 113L848 152L870 152L870 53L848 53L848 93L831 93L831 73L811 73L811 53L790 53M937 53L937 152L957.397 150.972L959 141L959 112L998 112L998 92L959 92L959 73L998 73L998 53L937 53M1063 53L1063 73L1083 73L1083 152L1105 152L1105 73L1124 73L1124 53L1063 53z"/>
<path style="fill:#9a9a9a; stroke:none;" d="M493 72L493 73L500 73L493 72z"/>
<path style="fill:#616161; stroke:none;" d="M500 72L500 73L504 73L500 72z"/>
<path style="fill:#313131; stroke:none;" d="M504 72L504 73L507 73L504 72z"/>
<path style="fill:#9a9a9a; stroke:none;" d="M507 72L507 92L508 92L507 72M448 73C448 83.5077 445 92.99 458 93L458 92L449 92L448 73z"/>
<path style="fill:#ffffff; stroke:none;" d="M449 73L449 92L487 92L487 73L449 73z"/>
<path style="fill:#616161; stroke:none;" d="M487 73L487 92L488 92L487 73z"/>
<path style="fill:#010101; stroke:none;" d="M488 73L488 92L507 92L507 73L488 73z"/>
<path style="fill:#616161; stroke:none;" d="M594 73L594 92L595 92L594 73M448 92L449 93L448 92M458 92L458 93L474 93L458 92z"/>
<path style="fill:#313131; stroke:none;" d="M474 92L474 93L484 93L474 92z"/>
<path style="fill:#9a9a9a; stroke:none;" d="M487 92L487 111L488 111L487 92M633 92L633 112L634 112L633 92z"/>
<path style="fill:#313131; stroke:none;" d="M450 111L450 112L455 112L450 111z"/>
<path style="fill:#616161; stroke:none;" d="M455 111L455 112L463 112L455 111z"/>
<path style="fill:#9a9a9a; stroke:none;" d="M463 111L463 112L477 112L463 111M493 111L493 112L500 112L493 111z"/>
<path style="fill:#616161; stroke:none;" d="M500 111L500 112L504 112L500 111z"/>
<path style="fill:#313131; stroke:none;" d="M504 111L504 112L507 112L504 111z"/>
<path style="fill:#9a9a9a; stroke:none;" d="M507 111L507 131L508 131L507 111M448 112L448 131L449 131L448 112z"/>
<path style="fill:#616161; stroke:none;" d="M487 112L487 131L488 131L487 112z"/>
<path style="fill:#010101; stroke:none;" d="M488 112L488 131L507 131L507 112L488 112z"/>
<path style="fill:#616161; stroke:none;" d="M594 112L594 131L595 131L594 112z"/>
<path style="fill:#9a9a9a; stroke:none;" d="M487 131L487 151L488 151L487 131M633 131L633 151L634 151L633 131z"/>
<path style="fill:#ffffff; stroke:none;" d="M701 131L701 152L723 152L723 131L701 131z"/>
</svg>
