<svg id="svg" version="1.1" xmlns="http://www.w3.org/2000/svg" xmlns:xlink="http://www.w3.org/1999/xlink" width="400" height="57.1875" viewBox="0, 0, 400,57.1875"><g id="svgg"><path id="path0" d="M73.035 11.875 L 73.083 13.250 74.083 13.432 C 77.231 14.003,77.142 13.608,77.267 27.625 C 77.316 33.062,77.405 36.333,77.506 36.333 C 77.594 36.333,77.667 36.558,77.667 36.833 C 77.667 37.108,77.742 37.333,77.833 37.333 C 77.925 37.333,78.000 37.469,78.000 37.635 C 78.000 37.801,78.150 38.098,78.333 38.295 C 78.517 38.492,78.667 38.731,78.667 38.826 C 78.667 39.454,82.153 42.999,82.771 43.000 C 82.875 43.000,83.053 43.112,83.167 43.250 C 83.281 43.387,83.515 43.500,83.687 43.500 C 83.859 43.500,84.000 43.575,84.000 43.667 C 84.000 43.758,84.112 43.833,84.250 43.833 C 84.387 43.833,84.500 43.908,84.500 44.000 C 84.500 44.092,84.650 44.167,84.833 44.167 C 85.017 44.167,85.167 44.242,85.167 44.333 C 85.167 44.425,85.350 44.500,85.573 44.500 C 85.797 44.500,86.027 44.575,86.083 44.667 C 86.140 44.758,86.332 44.833,86.510 44.833 C 86.688 44.833,86.833 44.908,86.833 45.000 C 86.833 45.092,87.016 45.167,87.240 45.167 C 87.464 45.167,87.693 45.242,87.750 45.333 C 87.807 45.425,88.105 45.500,88.413 45.500 C 88.720 45.500,88.997 45.572,89.028 45.660 C 89.058 45.748,89.702 45.871,90.458 45.934 C 91.215 45.997,91.833 46.112,91.833 46.191 C 91.833 46.269,93.525 46.333,95.593 46.333 C 98.057 46.333,99.318 46.276,99.250 46.167 C 99.187 46.065,99.439 46.000,99.897 46.000 C 100.309 46.000,100.693 45.925,100.750 45.833 C 100.807 45.742,101.069 45.667,101.333 45.667 C 101.598 45.667,101.860 45.592,101.917 45.500 C 101.973 45.408,102.171 45.333,102.355 45.333 C 103.564 45.333,107.421 42.933,109.062 41.161 C 111.903 38.092,112.000 37.593,112.000 25.996 C 112.000 13.655,112.067 13.360,114.941 13.043 L 116.083 12.917 116.135 12.094 C 116.164 11.642,116.144 11.098,116.091 10.886 L 115.994 10.500 108.997 10.500 L 102.000 10.500 102.000 11.839 C 102.000 13.345,102.042 13.396,103.292 13.409 C 103.681 13.413,104.000 13.465,104.000 13.524 C 104.000 13.582,104.189 13.678,104.419 13.736 C 104.983 13.877,105.500 14.340,105.500 14.704 C 105.500 14.867,105.575 15.000,105.667 15.000 C 105.758 15.000,105.833 15.172,105.833 15.383 C 105.833 15.594,105.923 15.857,106.033 15.967 C 106.189 16.122,106.189 16.167,106.033 16.167 C 105.923 16.167,105.833 16.279,105.833 16.417 C 105.833 16.554,105.905 16.667,105.993 16.667 C 106.219 16.667,106.230 36.608,106.004 36.748 C 105.910 36.806,105.833 37.069,105.833 37.332 C 105.833 37.814,104.906 39.500,104.642 39.500 C 104.564 39.500,104.500 39.572,104.500 39.661 C 104.500 39.936,103.526 40.833,103.228 40.833 C 103.072 40.833,102.990 40.879,103.045 40.934 C 103.196 41.085,100.681 42.333,100.227 42.333 C 100.010 42.333,99.833 42.408,99.833 42.500 C 99.833 42.592,99.605 42.667,99.326 42.667 C 99.048 42.667,98.657 42.818,98.459 43.003 C 97.748 43.665,97.750 43.701,97.750 31.736 C 97.750 17.697,97.626 18.336,100.388 18.167 L 101.750 18.083 101.802 17.176 C 101.830 16.676,101.810 16.095,101.757 15.884 L 101.660 15.500 94.663 15.500 L 87.667 15.500 87.667 16.823 C 87.667 18.404,87.583 18.334,89.750 18.574 C 90.025 18.604,90.306 18.637,90.374 18.648 C 90.686 18.696,91.502 19.762,91.583 20.229 C 91.807 21.520,91.875 23.720,91.976 33.059 L 92.083 43.034 91.351 42.934 C 88.073 42.484,84.414 40.063,83.480 37.726 L 83.091 36.750 83.034 27.284 C 82.955 13.955,83.032 13.581,85.981 13.098 L 87.083 12.917 87.135 12.094 C 87.164 11.642,87.144 11.098,87.091 10.886 L 86.994 10.500 79.990 10.500 L 72.987 10.500 73.035 11.875 M143.595 42.929 C 143.419 43.058,143.306 43.195,143.346 43.235 C 143.385 43.274,143.562 43.200,143.738 43.071 C 143.915 42.942,144.027 42.805,143.988 42.765 C 143.948 42.726,143.772 42.800,143.595 42.929 M142.167 43.500 C 142.167 43.592,142.312 43.667,142.490 43.667 C 142.668 43.667,142.860 43.592,142.917 43.500 C 142.975 43.405,142.835 43.333,142.593 43.333 C 142.359 43.333,142.167 43.408,142.167 43.500 M140.611 43.778 C 140.454 43.935,140.472 46.333,140.630 46.333 C 140.702 46.333,140.731 45.812,140.695 45.174 L 140.630 44.016 141.107 43.910 C 141.905 43.733,141.941 43.694,141.319 43.680 C 140.991 43.673,140.672 43.717,140.611 43.778 " stroke="none" fill="#bbbebc" fill-rule="evenodd"></path><path id="path1" d="M140.601 10.764 C 140.435 11.195,140.486 12.805,140.669 12.918 C 140.763 12.976,140.788 13.104,140.727 13.204 C 140.663 13.308,140.692 13.337,140.796 13.273 C 140.896 13.212,141.024 13.238,141.082 13.331 C 141.153 13.446,141.290 13.446,141.507 13.330 C 141.872 13.134,142.714 13.289,142.568 13.524 C 142.513 13.614,142.644 13.637,142.878 13.578 C 143.189 13.500,143.404 13.596,143.797 13.989 C 144.736 14.928,144.750 15.147,144.750 28.833 L 144.750 41.250 144.335 42.119 C 143.881 43.071,143.169 43.550,141.917 43.747 C 140.664 43.943,140.667 43.941,140.667 44.914 C 140.667 46.481,139.658 46.333,150.351 46.333 C 156.561 46.333,159.833 46.276,159.833 46.167 C 159.833 46.075,160.125 46.000,160.481 46.000 C 161.084 46.000,162.812 45.548,163.000 45.341 C 163.046 45.291,163.308 45.138,163.583 45.001 C 163.858 44.864,164.205 44.621,164.353 44.459 C 164.501 44.298,164.716 44.167,164.830 44.167 C 165.072 44.167,166.333 42.833,166.333 42.579 C 166.333 42.484,166.483 42.299,166.667 42.167 C 166.850 42.035,167.000 41.799,167.000 41.644 C 167.000 41.488,167.060 41.336,167.133 41.306 C 167.359 41.211,168.000 39.693,168.000 39.252 C 168.000 39.022,168.075 38.833,168.167 38.833 C 168.407 38.833,168.384 33.428,168.140 32.678 C 167.800 31.636,167.589 31.167,167.459 31.167 C 167.390 31.167,167.333 31.047,167.333 30.900 C 167.333 30.754,167.122 30.435,166.865 30.192 C 166.607 29.949,166.349 29.623,166.290 29.468 C 166.232 29.313,165.974 29.051,165.717 28.886 C 165.460 28.721,165.105 28.454,164.927 28.293 C 164.749 28.132,164.505 28.000,164.385 28.000 C 164.265 28.000,164.167 27.925,164.167 27.833 C 164.167 27.742,164.017 27.667,163.833 27.667 C 163.650 27.667,163.500 27.592,163.500 27.500 C 163.500 27.408,163.387 27.333,163.250 27.333 C 163.112 27.333,163.000 27.290,163.000 27.238 C 163.000 27.107,163.451 26.667,163.584 26.667 C 163.702 26.667,164.713 25.642,165.243 24.987 C 165.736 24.378,166.332 23.131,166.333 22.708 C 166.333 22.502,166.408 22.333,166.500 22.333 C 166.604 22.333,166.667 21.306,166.667 19.583 C 166.667 17.861,166.604 16.833,166.500 16.833 C 166.408 16.833,166.333 16.653,166.333 16.432 C 166.333 15.929,165.533 14.333,165.113 14.000 C 164.940 13.862,164.471 13.431,164.070 13.042 C 163.670 12.652,163.265 12.333,163.171 12.333 C 163.077 12.333,163.000 12.258,163.000 12.167 C 163.000 12.075,162.850 12.000,162.667 12.000 C 162.483 12.000,162.333 11.925,162.333 11.833 C 162.333 11.742,162.229 11.667,162.102 11.667 C 161.975 11.667,161.657 11.555,161.394 11.418 C 161.131 11.281,160.748 11.168,160.542 11.168 C 160.335 11.167,160.167 11.092,160.167 11.000 C 160.167 10.908,159.834 10.833,159.427 10.833 C 159.019 10.833,158.640 10.758,158.583 10.667 C 158.389 10.352,140.723 10.447,140.601 10.764 M155.000 14.333 C 154.826 14.446,155.124 14.496,155.980 14.497 C 157.031 14.500,157.256 14.553,157.522 14.859 C 157.693 15.056,157.833 15.131,157.833 15.026 C 157.833 14.920,157.946 14.833,158.083 14.833 C 158.221 14.833,158.333 14.899,158.333 14.979 C 158.333 15.059,158.547 15.168,158.807 15.220 C 159.327 15.324,160.500 16.395,160.500 16.767 C 160.500 16.895,160.566 17.000,160.648 17.000 C 161.010 17.000,161.347 21.220,161.012 21.555 C 160.914 21.653,160.833 21.901,160.833 22.107 C 160.833 22.312,160.758 22.527,160.667 22.583 C 160.575 22.640,160.500 22.798,160.500 22.934 C 160.500 23.328,159.410 24.500,159.043 24.500 C 158.928 24.500,158.833 24.575,158.833 24.667 C 158.833 24.758,158.754 24.833,158.657 24.833 C 158.560 24.833,158.527 24.758,158.583 24.667 C 158.640 24.575,158.600 24.500,158.494 24.500 C 158.389 24.500,158.263 24.650,158.215 24.833 C 158.123 25.186,157.833 25.297,157.833 24.980 C 157.833 24.850,157.757 24.856,157.585 24.998 C 157.449 25.112,157.378 25.271,157.428 25.352 C 157.479 25.433,157.173 25.500,156.750 25.500 C 156.327 25.500,156.020 25.565,156.069 25.644 C 156.118 25.723,155.507 25.803,154.710 25.820 C 153.884 25.838,153.156 25.938,153.015 26.051 C 152.827 26.204,152.797 26.204,152.888 26.052 C 153.028 25.819,152.362 25.808,152.055 26.039 C 151.938 26.127,151.703 26.104,151.471 25.984 C 151.258 25.872,150.971 25.729,150.833 25.664 C 150.563 25.537,150.516 21.515,150.738 17.583 C 150.896 14.797,151.082 14.532,152.910 14.482 C 153.515 14.465,154.050 14.387,154.098 14.309 C 154.147 14.231,154.426 14.168,154.718 14.169 C 155.123 14.171,155.190 14.210,155.000 14.333 M144.178 18.605 C 144.215 19.063,144.444 19.388,144.544 19.125 C 144.601 18.978,144.539 18.768,144.407 18.658 C 144.275 18.549,144.172 18.525,144.178 18.605 M151.936 29.323 C 152.098 29.191,152.177 29.172,152.112 29.281 C 152.024 29.428,152.520 29.481,154.082 29.488 C 155.230 29.494,156.300 29.562,156.460 29.640 C 156.619 29.718,156.918 29.868,157.123 29.974 C 157.581 30.211,157.718 30.218,157.583 30.000 C 157.527 29.908,157.560 29.833,157.657 29.833 C 157.754 29.833,157.833 29.890,157.833 29.960 C 157.833 30.030,157.991 30.185,158.184 30.306 C 158.377 30.426,158.485 30.444,158.424 30.346 C 158.267 30.091,158.380 30.120,159.144 30.527 C 159.515 30.725,159.784 30.945,159.740 31.016 C 159.697 31.086,159.737 31.191,159.831 31.248 C 159.924 31.306,160.000 31.274,160.000 31.177 C 160.000 31.079,160.080 31.000,160.178 31.000 C 160.283 31.000,160.312 31.154,160.250 31.375 C 160.178 31.633,160.193 31.680,160.300 31.526 C 160.660 31.008,161.388 31.959,162.168 33.968 C 162.871 35.780,161.921 40.326,160.585 41.539 C 160.102 41.978,159.538 42.177,159.750 41.833 C 159.909 41.577,159.707 41.635,159.335 41.954 C 159.151 42.112,159.000 42.337,159.000 42.454 C 159.000 42.571,158.925 42.667,158.833 42.667 C 158.742 42.667,158.667 42.582,158.667 42.480 C 158.667 42.350,158.591 42.356,158.419 42.498 C 158.282 42.612,158.211 42.771,158.262 42.852 C 158.312 42.933,158.128 43.000,157.853 43.000 C 157.578 43.000,157.304 43.079,157.245 43.175 C 157.172 43.292,157.051 43.279,156.875 43.133 C 156.667 42.962,156.598 42.960,156.542 43.125 C 156.500 43.250,156.176 43.333,155.736 43.333 C 155.331 43.333,155.000 43.408,155.000 43.500 C 155.000 43.592,154.846 43.667,154.657 43.667 C 154.468 43.667,154.360 43.592,154.417 43.500 C 154.481 43.397,154.168 43.333,153.593 43.333 C 153.052 43.333,152.667 43.260,152.667 43.157 C 152.667 43.060,152.596 43.024,152.510 43.077 C 152.308 43.202,151.167 42.068,151.167 41.744 C 151.167 41.610,151.103 41.500,151.024 41.500 C 150.946 41.500,150.865 40.919,150.844 40.208 C 150.823 39.498,150.769 38.579,150.724 38.167 C 150.679 37.754,150.608 35.745,150.565 33.703 C 150.486 29.894,150.541 29.500,151.155 29.500 C 151.253 29.500,151.334 29.406,151.336 29.292 C 151.338 29.147,151.385 29.156,151.490 29.323 C 151.621 29.531,151.680 29.531,151.936 29.323 M144.287 37.889 C 144.101 38.361,144.131 38.602,144.349 38.384 C 144.449 38.284,144.503 38.063,144.469 37.893 C 144.409 37.594,144.403 37.594,144.287 37.889 M304.717 45.000 C 304.717 45.504,304.748 45.710,304.786 45.458 C 304.824 45.206,304.824 44.794,304.786 44.542 C 304.748 44.290,304.717 44.496,304.717 45.000 " stroke="none" fill="#37423d" fill-rule="evenodd"></path><path id="path2" d="M87.083 11.708 L 87.083 12.917 85.981 13.098 C 83.041 13.580,82.961 13.961,83.034 27.101 C 83.085 36.315,83.090 36.427,83.460 37.346 C 83.872 38.366,85.514 40.281,85.817 40.094 C 85.920 40.030,86.000 40.094,86.000 40.240 C 86.000 40.383,86.098 40.500,86.219 40.500 C 86.339 40.500,86.598 40.650,86.795 40.833 C 86.992 41.017,87.262 41.167,87.396 41.167 C 87.530 41.167,87.673 41.260,87.715 41.375 C 87.776 41.542,87.836 41.542,88.013 41.375 C 88.194 41.203,88.183 41.167,87.950 41.167 C 87.794 41.167,87.667 41.092,87.667 41.000 C 87.667 40.908,87.533 40.833,87.370 40.833 C 87.207 40.833,86.965 40.683,86.833 40.500 C 86.701 40.317,86.516 40.166,86.422 40.166 C 86.327 40.166,85.987 39.841,85.667 39.444 C 85.346 39.048,85.008 38.706,84.917 38.684 C 84.825 38.663,84.774 38.530,84.803 38.389 C 84.833 38.242,84.780 38.180,84.678 38.243 C 84.567 38.312,84.500 38.162,84.500 37.843 C 84.500 37.563,84.425 37.333,84.333 37.333 C 84.242 37.333,84.167 37.038,84.167 36.677 C 84.167 36.315,84.092 35.973,84.000 35.917 C 83.894 35.851,83.833 33.704,83.833 30.023 C 83.833 26.211,83.774 24.174,83.659 24.059 C 83.251 23.651,83.380 15.669,83.808 14.802 C 84.291 13.823,84.853 13.432,85.602 13.554 C 85.909 13.604,86.204 13.575,86.257 13.489 C 86.310 13.403,86.533 13.333,86.754 13.333 C 87.353 13.333,87.543 12.821,87.409 11.572 C 87.256 10.139,87.083 10.212,87.083 11.708 M116.160 12.000 L 116.083 12.917 115.250 13.015 L 114.417 13.114 115.188 13.140 C 116.161 13.174,116.370 12.936,116.295 11.888 L 116.237 11.083 116.160 12.000 M112.241 15.202 C 112.167 15.412,112.061 20.196,112.005 25.833 C 111.914 35.053,111.873 36.176,111.605 37.000 C 111.164 38.358,110.108 40.046,108.896 41.331 C 108.218 42.049,107.901 42.498,108.036 42.549 C 108.189 42.606,108.154 42.704,107.917 42.892 C 107.733 43.037,107.658 43.156,107.750 43.157 C 107.842 43.157,108.179 42.928,108.500 42.648 C 108.821 42.368,108.990 42.187,108.875 42.246 C 108.632 42.371,108.608 42.185,108.823 41.844 C 108.935 41.668,109.033 41.652,109.196 41.786 C 109.358 41.918,109.474 41.904,109.632 41.733 C 109.828 41.520,109.771 41.433,109.464 41.478 C 109.152 41.525,109.587 40.989,110.015 40.800 C 110.282 40.682,110.500 40.487,110.500 40.366 C 110.500 40.246,110.571 40.191,110.657 40.244 C 110.743 40.297,110.939 40.077,111.093 39.754 C 111.246 39.431,111.438 39.167,111.519 39.167 C 111.600 39.167,111.667 39.017,111.667 38.833 C 111.667 38.650,111.742 38.500,111.833 38.500 C 111.925 38.500,112.000 38.317,112.000 38.093 C 112.000 37.869,112.075 37.640,112.167 37.583 C 112.258 37.527,112.333 37.297,112.333 37.073 C 112.333 36.850,112.405 36.667,112.492 36.667 C 112.590 36.667,112.654 34.253,112.659 30.375 C 112.663 26.811,112.604 24.180,112.523 24.306 C 112.302 24.649,112.122 17.103,112.323 15.927 C 112.502 14.882,112.466 14.564,112.241 15.202 M101.750 16.792 L 101.750 18.083 100.392 18.167 C 98.878 18.260,98.489 18.478,98.019 19.500 C 97.752 20.079,97.493 39.948,97.739 40.931 C 98.313 43.223,98.693 33.718,98.325 26.250 C 97.987 19.389,98.148 18.526,99.763 18.518 C 100.031 18.517,100.400 18.481,100.583 18.437 C 100.767 18.394,101.185 18.353,101.513 18.346 L 102.110 18.333 102.147 17.399 C 102.187 16.414,102.050 15.500,101.862 15.500 C 101.800 15.500,101.750 16.081,101.750 16.792 M144.454 30.667 C 144.350 39.536,144.314 40.615,144.096 41.610 C 143.964 42.208,143.305 43.000,142.939 43.000 C 142.789 43.000,142.667 43.075,142.667 43.167 C 142.667 43.957,144.178 42.553,144.503 41.460 C 144.766 40.580,144.913 27.625,144.702 24.000 C 144.585 21.987,144.544 23.100,144.454 30.667 M250.135 24.000 C 250.214 24.210,250.186 24.215,249.963 24.034 C 249.757 23.867,249.668 23.863,249.572 24.018 C 249.498 24.138,249.519 24.175,249.623 24.110 C 249.899 23.940,249.998 24.429,249.757 24.773 C 249.637 24.943,249.528 25.158,249.515 25.250 C 249.501 25.342,249.427 25.679,249.350 26.000 C 249.106 27.015,249.148 30.825,249.424 32.667 C 249.817 35.295,249.858 35.495,250.018 35.595 C 250.100 35.645,250.167 35.907,250.167 36.177 C 250.167 36.446,250.242 36.667,250.333 36.667 C 250.425 36.667,250.500 36.812,250.500 36.990 C 250.500 37.168,250.575 37.360,250.667 37.417 C 250.758 37.473,250.833 37.633,250.833 37.772 C 250.833 37.910,250.947 38.137,251.085 38.275 C 251.223 38.414,251.294 38.596,251.242 38.680 C 251.190 38.764,251.208 38.833,251.283 38.833 C 251.358 38.833,251.519 39.060,251.642 39.337 C 251.764 39.614,251.989 39.965,252.141 40.117 C 252.292 40.269,252.423 40.436,252.431 40.488 C 252.480 40.810,252.724 41.151,252.851 41.073 C 252.933 41.022,253.000 41.103,253.000 41.252 C 253.000 41.402,253.102 41.626,253.226 41.750 C 253.417 41.941,253.450 41.880,253.435 41.363 C 253.419 40.829,253.460 40.761,253.750 40.833 C 253.933 40.879,255.490 40.917,257.208 40.917 C 258.927 40.917,260.333 40.960,260.333 41.014 C 260.333 41.067,260.446 41.111,260.583 41.111 C 260.721 41.111,260.833 41.049,260.833 40.972 C 260.833 40.896,260.754 40.833,260.657 40.833 C 260.560 40.833,260.523 40.764,260.576 40.679 C 260.628 40.594,260.259 40.163,259.754 39.721 C 259.250 39.278,258.837 38.785,258.835 38.625 C 258.834 38.465,258.777 38.333,258.708 38.333 C 258.599 38.333,257.996 37.120,257.466 35.833 C 257.372 35.604,257.228 35.286,257.147 35.127 C 257.066 34.968,257.000 34.649,257.000 34.419 C 257.000 34.189,256.925 34.000,256.833 34.000 C 256.742 34.000,256.667 33.733,256.667 33.406 C 256.667 33.079,256.587 32.662,256.489 32.479 C 256.379 32.275,256.299 30.568,256.281 28.032 L 256.250 23.917 254.167 23.876 C 253.021 23.854,251.624 23.817,251.062 23.793 C 250.213 23.757,250.057 23.792,250.135 24.000 M41.892 24.270 C 41.695 24.476,41.248 24.699,40.898 24.764 C 40.549 24.830,40.147 25.022,40.006 25.190 C 39.865 25.359,39.506 25.513,39.208 25.534 C 38.910 25.554,38.667 25.630,38.667 25.702 C 38.667 25.774,38.516 25.833,38.331 25.833 C 38.146 25.833,37.865 25.904,37.706 25.990 C 37.244 26.240,35.762 26.751,35.625 26.707 C 35.556 26.685,35.500 26.726,35.500 26.798 C 35.500 26.870,35.259 26.947,34.965 26.970 C 34.671 26.992,34.389 27.073,34.340 27.149 C 34.290 27.224,33.950 27.387,33.583 27.511 C 33.217 27.634,32.845 27.794,32.758 27.867 C 32.671 27.940,32.428 28.000,32.217 28.000 C 32.006 28.000,31.833 28.075,31.833 28.167 C 31.833 28.258,31.762 28.333,31.674 28.333 C 31.178 28.333,29.485 29.719,28.975 30.542 C 28.762 30.885,28.531 31.167,28.461 31.167 C 28.391 31.167,28.332 31.260,28.330 31.375 C 28.328 31.490,28.179 31.771,28.000 32.000 C 27.821 32.229,27.672 32.542,27.670 32.694 C 27.668 32.847,27.607 32.997,27.535 33.028 C 26.956 33.272,26.760 34.915,26.743 39.667 C 26.734 42.279,26.753 43.705,26.786 42.836 C 26.862 40.873,26.686 40.973,30.049 40.973 C 32.597 40.973,32.760 40.992,32.977 41.320 C 33.384 41.933,33.435 41.709,33.426 39.342 C 33.419 37.694,33.477 36.956,33.625 36.808 C 33.740 36.694,33.833 36.390,33.833 36.133 C 33.833 35.877,33.908 35.667,34.000 35.667 C 34.092 35.667,34.167 35.584,34.167 35.483 C 34.167 35.179,36.206 33.163,36.618 33.060 C 36.828 33.007,37.000 32.897,37.000 32.815 C 37.000 32.734,37.150 32.667,37.333 32.667 C 37.517 32.667,37.667 32.592,37.667 32.500 C 37.667 32.408,37.777 32.333,37.912 32.333 C 38.046 32.333,38.424 32.183,38.750 32.000 C 39.076 31.817,39.491 31.667,39.672 31.667 C 39.852 31.667,40.000 31.592,40.000 31.500 C 40.000 31.408,40.172 31.333,40.383 31.333 C 40.594 31.333,40.838 31.272,40.925 31.196 C 41.012 31.121,41.552 30.915,42.125 30.738 C 42.698 30.561,43.167 30.360,43.167 30.292 C 43.167 30.223,43.268 30.167,43.391 30.167 C 43.514 30.167,43.751 30.017,43.917 29.833 C 44.083 29.650,44.318 29.500,44.441 29.500 C 44.563 29.500,44.822 29.369,45.016 29.208 C 46.206 28.225,46.819 27.611,46.739 27.482 C 46.688 27.400,46.726 27.333,46.823 27.333 C 46.921 27.333,47.000 27.219,47.000 27.080 C 47.000 26.940,47.185 26.742,47.411 26.639 C 47.638 26.536,47.787 26.393,47.743 26.322 C 47.699 26.252,47.777 26.080,47.915 25.942 C 48.053 25.804,48.167 25.619,48.167 25.531 C 48.167 25.443,48.279 25.157,48.416 24.894 C 48.982 23.808,49.013 23.818,45.458 23.858 C 42.370 23.892,42.237 23.908,41.892 24.270 M192.917 24.167 C 192.858 24.350,192.666 24.578,192.489 24.673 C 192.312 24.768,192.168 24.936,192.169 25.048 C 192.171 25.175,192.232 25.157,192.333 25.000 C 192.422 24.863,192.496 24.809,192.497 24.881 C 192.499 24.953,192.379 25.197,192.231 25.423 C 192.039 25.715,192.021 25.833,192.168 25.833 C 192.318 25.833,192.325 25.892,192.195 26.050 C 191.980 26.309,191.944 32.479,192.156 32.743 C 192.233 32.839,192.334 33.217,192.381 33.583 C 192.428 33.950,192.556 34.550,192.665 34.917 C 192.775 35.283,192.903 35.827,192.950 36.125 C 192.998 36.423,193.103 36.667,193.185 36.667 C 193.267 36.667,193.333 36.780,193.333 36.919 C 193.333 37.058,193.400 37.301,193.481 37.461 C 193.562 37.620,193.723 37.954,193.839 38.203 C 193.955 38.452,194.126 38.609,194.218 38.552 C 194.315 38.491,194.333 38.533,194.259 38.651 C 194.189 38.766,194.268 39.007,194.442 39.206 C 194.611 39.399,194.657 39.503,194.544 39.437 C 194.404 39.355,194.369 39.400,194.436 39.575 C 194.491 39.717,194.603 39.833,194.684 39.833 C 194.766 39.833,194.833 39.934,194.833 40.058 C 194.833 40.181,194.983 40.417,195.167 40.583 C 195.350 40.749,195.500 40.978,195.500 41.091 C 195.500 41.323,195.913 41.531,196.067 41.377 C 196.122 41.322,196.038 41.121,195.880 40.930 C 195.722 40.739,195.699 40.677,195.829 40.792 C 195.960 40.906,196.183 40.999,196.325 40.997 C 196.553 40.995,196.554 40.974,196.333 40.815 C 196.136 40.673,196.153 40.663,196.417 40.770 C 197.023 41.014,202.202 41.020,202.671 40.777 C 202.903 40.657,203.201 40.595,203.335 40.639 C 203.469 40.684,203.167 40.291,202.664 39.765 C 202.161 39.240,201.720 38.721,201.683 38.613 C 201.647 38.505,201.561 38.379,201.493 38.333 C 201.215 38.147,200.167 35.744,200.167 35.295 C 200.167 35.029,200.091 34.670,199.999 34.498 C 199.907 34.325,199.815 33.993,199.796 33.759 C 199.776 33.525,199.702 33.333,199.630 33.333 C 199.559 33.333,199.500 32.958,199.500 32.500 C 199.500 32.042,199.425 31.667,199.333 31.667 C 199.242 31.667,199.167 31.554,199.167 31.417 C 199.167 31.279,199.242 31.167,199.333 31.167 C 199.425 31.167,199.500 31.087,199.500 30.990 C 199.500 30.893,199.425 30.860,199.333 30.917 C 199.174 31.015,199.147 30.573,199.147 27.833 C 199.147 26.234,199.158 26.142,199.333 26.250 C 199.425 26.307,199.500 26.274,199.500 26.177 C 199.500 26.079,199.419 26.000,199.321 26.000 C 199.211 26.000,199.159 25.672,199.187 25.147 C 199.255 23.873,199.152 23.833,195.813 23.833 C 193.168 23.833,193.017 23.851,192.917 24.167 M309.592 24.208 C 309.141 25.705,308.785 40.450,309.190 40.885 C 309.326 41.030,310.092 41.058,312.062 40.989 C 314.606 40.900,314.771 40.914,315.136 41.237 L 315.522 41.578 315.350 41.128 C 315.246 40.853,315.240 40.641,315.335 40.582 C 315.518 40.469,315.497 38.333,315.313 38.333 C 315.243 38.333,315.180 35.244,315.172 31.469 C 315.164 27.693,315.114 24.431,315.061 24.219 C 314.965 23.836,314.667 23.675,314.667 24.006 C 314.667 24.125,314.567 24.125,314.344 24.006 C 313.631 23.624,309.718 23.791,309.592 24.208 M347.055 24.000 C 346.546 24.206,346.505 24.779,346.431 32.750 C 346.396 36.508,346.315 39.891,346.252 40.268 C 346.137 40.948,346.421 41.338,346.842 41.078 C 346.923 41.028,348.119 40.972,349.500 40.952 C 351.524 40.924,352.043 40.868,352.170 40.667 C 352.328 40.416,352.424 40.623,352.349 41.054 C 352.336 41.130,352.395 41.148,352.481 41.095 C 352.683 40.970,352.689 37.867,352.488 37.742 C 352.397 37.686,352.333 34.835,352.333 30.844 L 352.333 24.042 351.813 23.938 C 351.045 23.784,347.475 23.831,347.055 24.000 M367.347 24.012 C 367.060 24.129,366.995 24.228,367.122 24.355 C 367.235 24.468,367.249 24.712,367.162 25.017 C 367.086 25.283,367.074 25.501,367.137 25.503 C 367.199 25.504,367.137 25.578,367.000 25.667 C 366.863 25.756,366.836 25.829,366.940 25.831 C 367.045 25.832,367.160 26.091,367.197 26.405 C 367.234 26.719,367.196 26.935,367.114 26.884 C 367.027 26.830,367.023 26.957,367.105 27.187 C 367.220 27.511,367.247 28.565,367.177 29.958 C 367.171 30.073,367.172 30.260,367.179 30.375 C 367.186 30.490,367.152 30.771,367.105 31.000 C 367.057 31.229,366.977 32.154,366.927 33.056 C 366.876 33.958,366.786 34.776,366.725 34.874 C 366.665 34.972,366.585 35.321,366.549 35.651 C 366.513 35.980,366.412 36.321,366.325 36.408 C 366.238 36.495,366.167 36.703,366.167 36.869 C 366.167 37.035,366.097 37.301,366.012 37.461 C 365.836 37.790,365.671 38.286,365.685 38.441 C 365.691 38.499,365.629 38.592,365.547 38.648 C 365.150 38.922,364.481 40.301,364.859 40.067 C 364.982 39.991,365.006 40.022,364.926 40.152 C 364.856 40.264,364.685 40.312,364.544 40.258 C 364.315 40.170,364.315 40.200,364.539 40.538 C 364.817 40.959,367.094 41.166,368.213 40.872 C 368.882 40.697,369.276 40.776,369.404 41.111 C 369.473 41.291,369.429 41.342,369.260 41.277 C 369.097 41.214,369.047 41.263,369.110 41.425 C 369.286 41.883,369.833 41.296,369.700 40.792 C 369.682 40.723,369.754 40.685,369.861 40.708 C 369.968 40.731,370.149 40.571,370.263 40.352 C 370.377 40.134,370.533 39.909,370.610 39.852 C 370.822 39.697,371.333 38.672,371.333 38.403 C 371.333 38.273,371.390 38.166,371.458 38.165 C 371.627 38.164,372.000 37.339,372.000 36.967 C 372.000 36.802,372.075 36.667,372.167 36.667 C 372.258 36.667,372.333 36.553,372.333 36.414 C 372.333 36.276,372.399 36.032,372.480 35.873 C 372.725 35.386,373.000 34.413,373.000 34.030 C 373.000 33.830,373.065 33.667,373.143 33.667 C 373.407 33.667,373.563 31.778,373.586 28.300 C 373.601 26.046,373.551 24.885,373.443 24.952 C 373.347 25.011,373.318 24.946,373.375 24.799 C 373.679 24.006,368.889 23.381,367.347 24.012 M210.700 28.200 C 210.302 28.598,210.443 30.648,210.875 30.744 C 211.325 30.845,212.831 30.974,213.736 30.989 C 214.095 30.995,214.339 31.050,214.277 31.111 C 214.216 31.173,214.297 31.368,214.458 31.545 C 214.718 31.832,214.756 32.360,214.806 36.309 C 214.837 38.752,214.900 40.787,214.945 40.833 C 214.990 40.879,216.277 40.939,217.805 40.966 C 219.333 40.992,220.675 41.045,220.786 41.083 C 220.927 41.131,221.006 41.779,221.042 43.201 C 221.071 44.331,221.111 43.487,221.131 41.318 C 221.175 36.487,221.347 32.322,221.498 32.415 C 221.560 32.454,221.712 32.226,221.836 31.909 C 221.978 31.547,222.175 31.333,222.364 31.333 C 222.531 31.333,222.667 31.258,222.667 31.167 C 222.667 31.075,223.068 31.000,223.558 31.000 C 224.049 31.000,224.690 30.916,224.983 30.814 L 225.516 30.628 225.485 29.314 L 225.453 28.000 218.177 28.000 C 212.739 28.000,210.849 28.051,210.700 28.200 M267.856 28.149 C 267.664 28.271,267.664 28.306,267.856 28.376 C 268.038 28.442,268.042 28.502,267.875 28.679 C 267.152 29.446,267.805 30.828,268.902 30.853 C 269.368 30.863,269.825 30.889,269.917 30.911 C 270.008 30.932,270.402 30.961,270.792 30.975 C 271.280 30.992,271.500 31.073,271.500 31.236 C 271.500 31.366,271.594 31.503,271.708 31.542 C 271.867 31.594,271.931 32.770,271.975 36.456 L 272.033 41.300 272.542 41.155 C 272.822 41.074,274.197 41.001,275.598 40.991 L 278.146 40.973 278.233 40.111 C 278.281 39.638,278.361 38.050,278.411 36.583 C 278.460 35.117,278.539 33.692,278.584 33.417 C 278.630 33.142,278.710 32.662,278.762 32.351 C 278.869 31.715,279.177 31.333,279.581 31.333 C 279.731 31.333,279.813 31.269,279.765 31.190 C 279.716 31.112,280.218 31.005,280.880 30.954 C 282.704 30.812,282.667 30.846,282.667 29.316 L 282.667 28.000 275.375 28.003 C 271.365 28.004,267.981 28.070,267.856 28.149 M160.000 31.139 C 160.000 31.215,160.188 31.377,160.417 31.500 C 160.646 31.623,160.833 31.860,160.833 32.027 C 160.833 32.194,160.983 32.424,161.167 32.539 C 161.350 32.653,161.500 32.916,161.500 33.123 C 161.500 33.331,161.560 33.500,161.634 33.500 C 161.708 33.500,161.786 33.804,161.808 34.175 C 161.830 34.546,161.909 35.015,161.983 35.217 C 162.058 35.418,162.093 35.658,162.061 35.750 C 162.030 35.842,161.930 36.479,161.839 37.167 C 161.573 39.187,161.472 39.667,161.315 39.667 C 161.233 39.667,161.167 39.809,161.167 39.982 C 161.167 40.155,160.822 40.680,160.401 41.149 C 159.597 42.044,159.726 42.319,160.585 41.539 C 161.087 41.084,161.634 40.100,161.998 39.000 C 162.305 38.072,162.421 34.621,162.168 33.968 C 161.631 32.587,161.118 31.697,160.742 31.496 C 160.517 31.375,160.333 31.215,160.333 31.139 C 160.333 31.062,160.258 31.000,160.167 31.000 C 160.075 31.000,160.000 31.062,160.000 31.139 M46.098 37.191 C 46.147 37.269,46.107 37.333,46.010 37.333 C 45.907 37.333,45.833 37.713,45.833 38.240 C 45.833 38.739,45.775 39.183,45.704 39.227 C 45.434 39.394,45.477 41.332,45.748 41.228 C 45.886 41.175,45.963 41.075,45.919 41.005 C 45.810 40.827,48.349 41.000,48.717 41.195 C 48.988 41.339,49.012 41.579,48.967 43.662 C 48.938 44.995,48.980 45.930,49.066 45.876 C 49.220 45.781,49.060 38.234,48.890 37.543 C 48.839 37.337,48.731 37.210,48.649 37.261 C 48.567 37.312,48.500 37.270,48.500 37.168 C 48.500 37.045,48.077 36.994,47.255 37.015 C 46.570 37.034,46.050 37.113,46.098 37.191 M308.781 41.108 C 308.603 41.286,308.647 41.833,308.839 41.833 C 309.085 41.833,309.240 41.340,309.053 41.153 C 308.966 41.066,308.843 41.046,308.781 41.108 M45.238 41.688 C 45.153 41.833,44.971 41.994,44.833 42.046 C 44.611 42.130,44.611 42.142,44.833 42.151 C 45.213 42.167,45.550 41.899,45.466 41.649 C 45.408 41.474,45.358 41.483,45.238 41.688 M362.333 41.853 C 361.880 42.097,361.828 42.166,362.099 42.166 C 362.291 42.167,362.584 42.017,362.750 41.833 C 363.102 41.444,363.097 41.444,362.333 41.853 M265.133 42.533 C 265.289 42.689,265.378 42.689,265.533 42.533 C 265.689 42.378,265.644 42.333,265.333 42.333 C 265.022 42.333,264.978 42.378,265.133 42.533 M266.750 42.500 L 266.417 42.643 266.750 42.643 C 266.933 42.643,267.233 42.579,267.417 42.500 L 267.750 42.357 267.417 42.357 C 267.233 42.357,266.933 42.421,266.750 42.500 M35.538 42.760 C 35.708 42.930,36.681 42.992,36.579 42.826 C 36.525 42.738,36.247 42.667,35.962 42.667 C 35.678 42.667,35.486 42.709,35.538 42.760 M37.558 42.856 C 37.778 42.984,37.918 42.982,38.049 42.851 C 38.184 42.716,38.100 42.668,37.742 42.672 C 37.311 42.676,37.288 42.699,37.558 42.856 M39.208 42.782 C 39.369 42.823,39.631 42.823,39.792 42.782 C 39.952 42.740,39.821 42.705,39.500 42.705 C 39.179 42.705,39.048 42.740,39.208 42.782 M157.750 42.833 C 157.693 42.925,157.806 43.000,158.000 43.000 C 158.194 43.000,158.307 42.925,158.250 42.833 C 158.193 42.742,158.081 42.667,158.000 42.667 C 157.919 42.667,157.807 42.742,157.750 42.833 M140.900 43.527 C 140.852 43.604,141.118 43.667,141.490 43.667 C 141.862 43.667,142.167 43.594,142.167 43.505 C 142.167 43.310,141.022 43.330,140.900 43.527 M154.417 43.500 C 154.360 43.592,154.468 43.667,154.657 43.667 C 154.846 43.667,155.000 43.592,155.000 43.500 C 155.000 43.408,154.892 43.333,154.760 43.333 C 154.628 43.333,154.473 43.408,154.417 43.500 M342.989 43.510 C 342.811 43.623,342.865 43.662,343.198 43.664 C 343.445 43.666,343.684 43.607,343.729 43.535 C 343.844 43.347,343.276 43.329,342.989 43.510 M140.191 45.000 C 140.234 46.724,140.459 46.724,140.529 45.000 C 140.570 44.001,140.530 43.666,140.371 43.666 C 140.214 43.667,140.167 44.014,140.191 45.000 M304.885 44.917 C 304.886 45.467,304.917 45.672,304.954 45.372 C 304.991 45.072,304.990 44.622,304.952 44.372 C 304.914 44.122,304.884 44.367,304.885 44.917 M342.212 44.667 C 342.212 45.079,342.245 45.248,342.284 45.042 C 342.324 44.835,342.324 44.498,342.284 44.292 C 342.245 44.085,342.212 44.254,342.212 44.667 " stroke="none" fill="#07ef9a" fill-rule="evenodd"></path><path id="path3" d="M98.372 38.292 C 98.334 41.283,98.248 41.700,97.794 41.083 C 97.727 40.992,97.671 41.418,97.669 42.032 C 97.667 43.193,97.858 43.546,98.269 43.136 C 98.464 42.941,98.498 42.207,98.458 39.074 L 98.410 35.250 98.372 38.292 M83.501 37.763 C 83.498 38.476,85.285 40.343,86.896 41.311 C 88.480 42.262,92.463 43.448,92.100 42.860 C 92.034 42.753,91.797 42.667,91.573 42.667 C 91.350 42.667,91.167 42.592,91.167 42.500 C 91.167 42.408,90.984 42.333,90.760 42.333 C 90.536 42.333,90.312 42.268,90.263 42.188 C 90.213 42.107,89.968 42.042,89.718 42.042 C 89.468 42.042,89.236 41.957,89.201 41.854 C 89.167 41.751,89.000 41.667,88.829 41.667 C 88.659 41.667,88.471 41.589,88.412 41.493 C 88.354 41.398,88.162 41.365,87.986 41.421 C 87.807 41.478,87.667 41.444,87.667 41.345 C 87.667 41.247,87.517 41.167,87.333 41.167 C 87.150 41.167,87.000 41.092,87.000 41.000 C 87.000 40.908,87.079 40.833,87.177 40.833 C 87.274 40.833,87.302 40.750,87.239 40.649 C 87.156 40.514,87.094 40.514,87.011 40.648 C 86.862 40.890,86.003 40.507,86.001 40.198 C 86.001 40.079,86.075 40.027,86.167 40.083 C 86.258 40.140,86.333 40.107,86.333 40.010 C 86.333 39.776,86.114 39.786,85.868 40.032 C 85.649 40.251,84.429 39.105,83.822 38.110 C 83.646 37.820,83.501 37.664,83.501 37.763 M364.548 40.000 C 364.500 40.183,364.397 40.333,364.319 40.333 C 364.241 40.333,364.220 40.446,364.273 40.583 C 364.357 40.802,364.294 40.846,363.913 40.830 C 363.866 40.828,363.627 41.011,363.383 41.237 C 363.139 41.464,362.883 41.614,362.815 41.572 C 362.746 41.529,362.635 41.582,362.569 41.690 C 362.487 41.823,362.522 41.840,362.683 41.744 C 362.877 41.627,362.880 41.647,362.702 41.867 C 362.585 42.013,362.234 42.180,361.923 42.238 C 361.612 42.296,361.333 42.416,361.304 42.505 C 361.274 42.593,360.934 42.678,360.549 42.693 C 360.163 42.708,359.886 42.784,359.933 42.860 C 359.981 42.937,359.570 43.000,359.020 43.000 C 358.470 43.000,357.973 43.075,357.917 43.167 C 357.779 43.389,356.382 43.381,356.244 43.157 C 356.184 43.060,355.973 42.993,355.776 43.009 C 354.666 43.096,353.533 42.975,353.240 42.738 C 353.062 42.593,353.029 42.524,353.167 42.583 C 353.304 42.643,353.271 42.573,353.093 42.429 C 352.915 42.285,352.826 42.167,352.894 42.167 C 352.963 42.167,352.908 42.008,352.772 41.814 C 352.636 41.620,352.570 41.346,352.624 41.204 C 352.697 41.014,352.660 40.983,352.487 41.088 C 352.297 41.202,352.299 41.169,352.500 40.917 C 352.646 40.734,352.663 40.655,352.542 40.728 C 352.418 40.802,352.332 40.765,352.331 40.635 C 352.329 40.477,352.285 40.486,352.170 40.667 C 352.043 40.868,351.524 40.924,349.500 40.952 C 348.119 40.972,346.923 41.028,346.842 41.078 C 346.762 41.127,346.577 41.122,346.432 41.066 C 346.224 40.987,346.167 41.077,346.167 41.482 C 346.167 41.767,346.092 42.000,346.000 42.000 C 345.908 42.000,345.852 42.082,345.875 42.182 C 345.898 42.282,345.770 42.451,345.591 42.557 C 345.413 42.663,345.150 42.880,345.008 43.038 C 344.866 43.197,344.474 43.343,344.136 43.363 C 343.798 43.384,343.560 43.463,343.608 43.539 C 343.655 43.616,343.428 43.661,343.103 43.639 C 342.342 43.588,342.263 43.683,342.284 44.630 L 342.301 45.417 342.174 44.750 C 342.051 44.103,342.047 44.111,342.024 45.052 C 342.009 45.653,342.062 45.981,342.165 45.918 C 342.259 45.859,342.287 45.926,342.230 46.075 C 342.141 46.307,343.172 46.333,352.232 46.333 C 358.855 46.333,362.333 46.276,362.333 46.167 C 362.333 46.075,362.591 46.000,362.907 46.000 C 363.222 46.000,363.530 45.920,363.590 45.822 C 363.651 45.724,363.805 45.684,363.934 45.733 C 364.062 45.783,364.167 45.750,364.167 45.661 C 364.167 45.573,364.317 45.500,364.500 45.500 C 364.683 45.500,364.833 45.425,364.833 45.333 C 364.833 45.242,364.988 45.167,365.177 45.167 C 365.365 45.167,365.473 45.092,365.417 45.000 C 365.360 44.908,365.473 44.833,365.667 44.833 C 365.861 44.833,365.973 44.758,365.917 44.667 C 365.860 44.575,365.914 44.500,366.037 44.500 C 366.159 44.500,366.368 44.350,366.500 44.167 C 366.632 43.983,366.835 43.833,366.951 43.833 C 367.333 43.833,369.200 41.810,369.115 41.488 C 369.062 41.285,369.111 41.220,369.271 41.281 C 369.427 41.341,369.472 41.287,369.407 41.118 C 369.284 40.799,368.868 40.694,368.333 40.847 C 366.658 41.328,363.985 40.868,364.767 40.232 C 364.941 40.091,364.977 40.031,364.847 40.098 C 364.674 40.188,364.639 40.147,364.716 39.944 C 364.775 39.791,364.781 39.667,364.729 39.667 C 364.678 39.667,364.596 39.817,364.548 40.000 M278.200 40.528 L 278.167 40.973 275.609 40.991 C 274.202 41.001,272.833 41.070,272.567 41.145 C 272.301 41.221,271.979 41.246,271.852 41.203 C 271.712 41.155,271.666 41.197,271.735 41.310 C 271.809 41.428,271.757 41.460,271.592 41.397 C 271.449 41.342,271.333 41.385,271.333 41.492 C 271.333 41.599,271.252 41.636,271.153 41.575 C 271.054 41.514,270.858 41.628,270.717 41.829 C 270.552 42.065,270.404 42.137,270.300 42.033 C 270.081 41.814,269.473 41.987,269.617 42.227 C 269.680 42.331,269.589 42.304,269.417 42.167 C 269.234 42.021,269.155 42.004,269.228 42.125 C 269.313 42.267,269.230 42.338,268.968 42.348 C 268.301 42.372,267.603 42.460,267.016 42.591 C 266.551 42.696,266.474 42.676,266.589 42.484 C 266.710 42.285,266.689 42.284,266.449 42.479 C 266.241 42.647,266.109 42.659,265.946 42.524 C 265.785 42.391,265.673 42.394,265.529 42.537 C 265.379 42.688,265.287 42.687,265.133 42.533 C 265.023 42.423,264.611 42.333,264.217 42.333 C 263.822 42.333,263.500 42.258,263.500 42.167 C 263.500 42.075,263.278 42.000,263.006 42.000 C 262.735 42.000,262.379 41.859,262.215 41.687 C 262.051 41.515,261.729 41.317,261.501 41.246 C 261.272 41.176,260.997 40.998,260.889 40.851 C 260.782 40.704,260.638 40.640,260.569 40.709 C 260.501 40.777,260.532 40.833,260.639 40.833 C 260.746 40.833,260.833 40.896,260.833 40.972 C 260.833 41.049,260.721 41.111,260.583 41.111 C 260.446 41.111,260.333 41.067,260.333 41.014 C 260.333 40.960,258.927 40.917,257.208 40.917 C 255.490 40.917,253.933 40.879,253.750 40.833 C 253.458 40.760,253.419 40.829,253.436 41.383 C 253.456 42.008,254.007 42.833,254.406 42.833 C 254.505 42.833,254.680 42.983,254.795 43.167 C 254.909 43.350,255.133 43.501,255.293 43.503 C 255.516 43.505,255.532 43.538,255.361 43.646 C 255.138 43.787,255.558 44.094,255.880 44.025 C 255.951 44.010,256.053 44.110,256.106 44.248 C 256.159 44.387,256.349 44.500,256.528 44.500 C 256.707 44.500,256.816 44.560,256.771 44.633 C 256.725 44.707,256.841 44.862,257.028 44.979 C 257.308 45.153,257.345 45.152,257.239 44.971 C 257.168 44.849,257.264 44.885,257.453 45.051 C 257.887 45.431,259.370 46.000,259.928 46.000 C 260.169 46.000,260.308 46.072,260.250 46.167 C 260.187 46.268,260.432 46.333,260.873 46.333 C 261.273 46.333,261.678 46.412,261.774 46.507 C 262.140 46.873,269.500 46.532,269.500 46.148 C 269.500 46.067,269.725 46.000,270.000 46.000 C 270.275 46.000,270.500 45.917,270.500 45.816 C 270.500 45.714,270.606 45.672,270.736 45.722 C 270.866 45.771,271.016 45.700,271.068 45.562 C 271.121 45.425,271.235 45.356,271.321 45.409 C 271.407 45.462,271.524 45.429,271.582 45.336 C 272.025 44.619,272.066 45.708,271.758 50.046 C 271.733 50.393,271.665 50.724,271.607 50.782 C 271.548 50.841,271.500 51.019,271.500 51.178 C 271.500 51.827,270.363 52.667,269.483 52.667 C 269.034 52.667,268.667 52.737,268.667 52.822 C 268.667 52.908,268.460 53.002,268.208 53.031 C 267.757 53.082,267.749 53.104,267.701 54.370 C 267.640 55.994,266.865 55.853,275.500 55.796 L 282.583 55.750 282.632 54.375 L 282.680 53.000 282.100 53.000 C 281.781 53.000,281.473 52.925,281.417 52.833 C 281.360 52.742,280.997 52.667,280.610 52.667 C 280.105 52.667,279.841 52.576,279.673 52.342 C 279.545 52.164,279.378 52.056,279.303 52.102 C 279.228 52.148,279.167 52.076,279.167 51.940 C 279.167 51.805,279.088 51.668,278.991 51.636 C 278.651 51.523,278.464 49.538,278.349 44.833 C 278.286 42.221,278.218 40.283,278.200 40.528 M202.946 40.625 C 202.627 40.944,197.129 41.069,196.417 40.774 C 196.155 40.665,196.137 40.674,196.333 40.815 C 196.554 40.974,196.553 40.995,196.325 40.997 C 196.183 40.999,195.960 40.906,195.829 40.792 C 195.699 40.677,195.726 40.745,195.890 40.942 C 196.083 41.174,196.126 41.339,196.013 41.409 C 195.893 41.483,195.903 41.589,196.043 41.741 C 196.157 41.864,196.306 41.931,196.375 41.889 C 196.444 41.848,196.500 41.890,196.500 41.983 C 196.500 42.176,197.283 42.997,197.456 42.984 C 197.519 42.979,197.624 43.112,197.690 43.279 C 197.756 43.447,197.815 43.487,197.822 43.368 C 197.831 43.193,197.876 43.193,198.065 43.368 C 198.233 43.524,198.244 43.617,198.107 43.706 C 197.994 43.778,198.070 43.829,198.292 43.831 C 198.498 43.832,198.667 43.908,198.667 44.000 C 198.667 44.092,198.761 44.167,198.876 44.167 C 198.990 44.167,199.282 44.373,199.524 44.625 C 199.765 44.877,200.290 45.207,200.690 45.358 C 201.090 45.508,201.567 45.689,201.750 45.758 C 201.933 45.828,202.271 45.915,202.500 45.953 C 202.729 45.990,202.942 46.091,202.972 46.177 C 203.003 46.263,203.397 46.333,203.847 46.333 C 204.298 46.333,204.667 46.408,204.667 46.500 C 204.667 46.605,205.858 46.667,207.907 46.667 C 209.887 46.667,211.187 46.602,211.250 46.500 C 211.307 46.408,211.574 46.333,211.843 46.333 C 212.113 46.333,212.333 46.258,212.333 46.167 C 212.333 46.075,212.508 46.000,212.722 46.000 C 212.936 46.000,213.167 45.944,213.236 45.875 C 213.305 45.806,213.411 45.740,213.472 45.728 C 213.915 45.638,214.333 45.437,214.333 45.314 C 214.333 45.233,214.450 45.167,214.592 45.167 C 214.883 45.167,214.926 48.403,214.640 48.771 C 214.560 48.873,214.520 49.380,214.551 49.896 C 214.582 50.411,214.553 50.833,214.486 50.833 C 214.420 50.833,214.287 51.061,214.190 51.338 C 213.904 52.160,213.177 52.667,212.286 52.667 C 211.982 52.667,211.662 52.735,211.575 52.819 C 211.488 52.903,211.229 52.997,211.000 53.028 C 210.375 53.111,210.254 55.600,210.868 55.750 C 211.078 55.801,214.438 55.822,218.333 55.796 L 225.417 55.750 225.465 54.375 L 225.513 53.000 224.933 53.000 C 224.614 53.000,224.307 52.925,224.250 52.833 C 224.193 52.742,223.866 52.667,223.523 52.667 C 222.902 52.667,221.667 51.801,221.667 51.366 C 221.667 51.272,221.593 51.169,221.502 51.139 C 221.406 51.106,221.258 49.066,221.144 46.167 C 221.037 43.462,220.904 41.200,220.850 41.139 C 220.795 41.078,219.405 41.003,217.761 40.973 C 216.117 40.942,214.898 40.941,215.052 40.971 C 215.426 41.042,215.416 41.317,215.042 41.259 C 214.881 41.234,214.711 41.274,214.662 41.348 C 214.614 41.422,214.314 41.531,213.996 41.590 C 213.677 41.649,213.342 41.720,213.250 41.748 C 212.495 41.979,212.349 42.057,212.428 42.186 C 212.516 42.328,211.781 42.391,210.129 42.382 C 209.696 42.380,209.382 42.443,209.431 42.523 C 209.480 42.602,209.370 42.667,209.186 42.667 C 209.003 42.667,208.804 42.588,208.745 42.492 C 208.673 42.376,208.570 42.373,208.438 42.482 C 208.314 42.586,208.147 42.590,207.994 42.493 C 207.860 42.408,207.469 42.337,207.125 42.336 C 206.781 42.334,206.500 42.258,206.500 42.167 C 206.500 42.075,206.325 42.000,206.111 42.000 C 205.897 42.000,205.668 41.946,205.602 41.880 C 205.536 41.814,205.317 41.758,205.116 41.755 C 204.902 41.752,204.769 41.658,204.796 41.529 C 204.827 41.377,204.736 41.342,204.504 41.415 C 204.309 41.477,204.167 41.447,204.167 41.345 C 204.167 41.247,204.017 41.167,203.833 41.167 C 203.648 41.167,203.500 41.056,203.500 40.917 C 203.500 40.779,203.421 40.667,203.323 40.667 C 203.226 40.667,203.193 40.592,203.250 40.500 C 203.408 40.245,203.270 40.301,202.946 40.625 M308.833 40.706 C 308.833 40.857,308.908 41.027,309.000 41.083 C 309.315 41.278,309.166 41.675,308.708 41.857 C 308.456 41.958,308.334 42.071,308.437 42.110 C 308.544 42.150,308.401 42.410,308.104 42.715 C 307.794 43.034,307.534 43.183,307.461 43.083 C 307.385 42.980,307.337 42.996,307.336 43.125 C 307.334 43.260,307.071 43.333,306.583 43.333 C 306.171 43.333,305.833 43.408,305.833 43.500 C 305.833 43.592,305.627 43.667,305.375 43.667 C 304.892 43.666,304.638 45.879,305.083 46.206 C 305.175 46.273,308.456 46.329,312.375 46.331 L 319.500 46.333 319.500 44.990 C 319.500 44.221,319.435 43.687,319.348 43.741 C 319.264 43.793,319.170 43.760,319.139 43.667 C 319.108 43.575,318.633 43.454,318.083 43.399 C 317.533 43.344,317.058 43.232,317.028 43.149 C 316.997 43.067,316.856 43.000,316.714 43.000 C 316.247 43.000,315.723 42.199,315.814 41.625 C 315.824 41.556,315.744 41.500,315.636 41.500 C 315.527 41.500,315.283 41.364,315.094 41.198 C 314.782 40.923,314.500 40.904,312.055 40.989 C 309.521 41.078,309.345 41.064,309.097 40.758 C 308.873 40.481,308.833 40.474,308.833 40.706 M315.281 40.625 C 315.241 40.694,315.269 40.900,315.342 41.083 C 315.460 41.374,315.478 41.358,315.488 40.958 C 315.500 40.506,315.422 40.381,315.281 40.625 M109.698 41.006 C 109.268 41.408,109.257 41.444,109.574 41.444 C 109.706 41.444,109.800 41.363,109.782 41.264 C 109.765 41.165,109.849 41.104,109.971 41.129 C 110.092 41.154,110.148 41.104,110.095 41.018 C 110.041 40.932,110.092 40.824,110.207 40.777 C 110.322 40.731,110.337 40.687,110.240 40.680 C 110.142 40.673,109.899 40.820,109.698 41.006 M27.113 41.083 C 26.948 41.204,26.853 41.952,26.768 43.793 L 26.650 46.336 37.853 46.293 C 47.238 46.257,49.068 46.212,49.133 46.018 C 49.175 45.891,49.144 45.828,49.063 45.878 C 48.981 45.929,48.939 44.961,48.967 43.662 C 49.012 41.579,48.988 41.339,48.717 41.195 C 48.349 41.000,45.810 40.827,45.919 41.005 C 45.963 41.075,45.886 41.175,45.749 41.227 C 45.612 41.280,45.500 41.472,45.500 41.655 C 45.500 41.905,45.324 42.034,44.792 42.177 C 44.402 42.282,44.040 42.437,43.987 42.522 C 43.934 42.607,42.621 42.696,41.068 42.721 C 39.515 42.745,38.153 42.822,38.042 42.891 C 37.931 42.959,37.694 42.937,37.514 42.841 C 37.106 42.623,36.447 42.612,36.579 42.826 C 36.674 42.980,36.521 42.969,35.185 42.725 C 34.823 42.659,34.657 42.682,34.723 42.790 C 34.787 42.893,34.534 42.964,34.074 42.973 L 33.320 42.988 33.424 42.434 C 33.508 41.987,33.447 41.794,33.108 41.428 L 32.688 40.974 30.014 40.945 C 28.445 40.929,27.246 40.986,27.113 41.083 M108.768 41.930 C 108.626 42.299,108.638 42.339,108.875 42.292 C 109.143 42.238,109.335 41.971,109.229 41.800 C 109.096 41.584,108.877 41.647,108.768 41.930 M107.754 42.594 C 107.481 42.736,107.218 42.905,107.170 42.968 C 106.881 43.350,102.845 45.333,102.355 45.333 C 102.171 45.333,101.973 45.408,101.917 45.500 C 101.860 45.592,101.598 45.667,101.333 45.667 C 101.069 45.667,100.807 45.742,100.750 45.833 C 100.689 45.933,100.887 46.000,101.240 46.000 C 101.566 46.000,101.833 45.938,101.833 45.861 C 101.833 45.785,102.002 45.735,102.208 45.751 C 102.415 45.767,102.827 45.678,103.125 45.554 C 103.423 45.430,103.667 45.373,103.667 45.426 C 103.667 45.480,103.785 45.405,103.930 45.260 C 104.075 45.115,104.262 45.040,104.347 45.092 C 104.431 45.144,104.500 45.119,104.500 45.037 C 104.500 44.954,104.798 44.788,105.162 44.668 C 105.527 44.548,105.973 44.311,106.155 44.141 C 106.337 43.972,106.595 43.833,106.729 43.833 C 106.863 43.833,106.999 43.754,107.031 43.658 C 107.063 43.561,107.238 43.460,107.420 43.433 C 107.601 43.407,107.750 43.305,107.750 43.206 C 107.750 43.108,107.930 42.872,108.151 42.681 C 108.624 42.270,108.448 42.232,107.754 42.594 M99.250 46.167 C 99.307 46.258,99.574 46.333,99.843 46.333 C 100.113 46.333,100.333 46.258,100.333 46.167 C 100.333 46.075,100.066 46.000,99.740 46.000 C 99.387 46.000,99.189 46.067,99.250 46.167 " stroke="none" fill="#04e8da" fill-rule="evenodd"></path><path id="path4" d="M87.408 11.559 C 87.543 12.822,87.355 13.333,86.754 13.333 C 86.533 13.333,86.306 13.409,86.250 13.501 C 86.119 13.712,87.249 13.551,87.833 13.275 C 88.223 13.091,88.250 12.999,88.250 11.831 L 88.250 10.583 87.771 10.529 L 87.292 10.474 87.408 11.559 M116.280 11.579 C 116.408 12.954,116.251 13.167,115.105 13.167 C 112.559 13.168,112.062 14.502,112.262 20.796 C 112.398 25.072,112.533 25.375,112.701 21.778 C 112.993 15.539,112.964 15.768,113.613 14.401 C 113.849 13.904,115.506 13.333,116.712 13.333 C 116.962 13.333,117.000 13.148,117.000 11.917 C 117.000 10.522,116.993 10.500,116.590 10.500 C 116.185 10.500,116.181 10.516,116.280 11.579 M140.167 11.915 C 140.167 13.316,140.171 13.329,140.577 13.296 C 140.956 13.264,140.967 13.240,140.724 12.971 C 140.523 12.749,140.477 12.422,140.530 11.590 C 140.582 10.772,140.545 10.500,140.383 10.500 C 140.223 10.500,140.167 10.867,140.167 11.915 M204.917 10.667 C 204.860 10.758,204.556 10.833,204.240 10.833 C 203.925 10.833,203.667 10.908,203.667 11.000 C 203.667 11.092,203.464 11.167,203.216 11.167 C 202.717 11.167,200.167 12.304,200.167 12.526 C 200.167 12.603,200.068 12.667,199.948 12.667 C 199.828 12.667,199.569 12.817,199.372 13.000 C 199.175 13.183,198.974 13.333,198.925 13.333 C 198.683 13.333,196.960 14.999,195.917 16.241 C 195.550 16.678,195.156 17.134,195.042 17.256 C 194.927 17.377,194.833 17.588,194.833 17.724 C 194.833 17.861,194.773 17.997,194.700 18.028 C 194.482 18.119,193.667 19.683,193.667 20.011 C 193.667 20.178,193.592 20.360,193.500 20.417 C 193.408 20.473,193.333 20.665,193.333 20.843 C 193.333 21.021,193.258 21.167,193.167 21.167 C 193.075 21.167,193.000 21.350,193.000 21.573 C 193.000 21.797,192.918 22.031,192.817 22.093 C 192.717 22.155,192.664 22.460,192.701 22.770 C 192.746 23.155,192.698 23.333,192.550 23.333 C 192.408 23.333,192.333 23.564,192.333 24.000 C 192.333 24.754,192.581 24.871,192.864 24.250 L 193.054 23.833 195.828 23.833 C 199.150 23.833,199.255 23.874,199.187 25.147 C 199.162 25.630,199.214 26.000,199.307 26.000 C 199.398 26.000,199.472 25.659,199.472 25.242 C 199.472 24.825,199.545 24.394,199.634 24.284 C 199.790 24.090,199.910 23.456,200.106 21.792 C 200.157 21.356,200.267 21.000,200.349 21.000 C 200.432 21.000,200.501 20.906,200.502 20.792 C 200.511 19.921,203.053 16.333,203.661 16.333 C 203.756 16.333,203.833 16.270,203.833 16.193 C 203.833 16.117,204.132 15.910,204.498 15.735 C 204.864 15.560,205.164 15.360,205.165 15.292 C 205.166 15.223,205.312 15.167,205.490 15.167 C 205.668 15.167,205.860 15.092,205.917 15.000 C 205.973 14.908,206.240 14.833,206.510 14.833 C 206.779 14.833,207.000 14.758,207.000 14.667 C 207.000 14.564,207.861 14.500,209.250 14.500 C 210.639 14.500,211.500 14.564,211.500 14.667 C 211.500 14.758,211.637 14.833,211.804 14.833 C 212.764 14.833,216.167 17.288,216.167 17.981 C 216.167 18.083,216.223 18.167,216.292 18.168 C 216.360 18.169,216.709 18.750,217.067 19.460 C 218.011 21.330,218.000 21.306,218.000 21.583 C 218.000 21.723,218.070 21.968,218.155 22.127 C 218.239 22.286,218.351 22.552,218.403 22.717 C 218.483 22.974,218.667 23.013,219.665 22.984 L 220.833 22.949 220.833 21.818 C 220.833 21.196,220.758 20.640,220.667 20.583 C 220.574 20.526,220.500 19.752,220.500 18.833 C 220.500 17.915,220.426 17.141,220.333 17.083 C 220.235 17.023,220.167 16.026,220.167 14.657 C 220.167 12.468,220.148 12.333,219.843 12.333 C 219.665 12.333,219.473 12.258,219.417 12.167 C 219.360 12.075,218.793 12.000,218.157 12.000 C 217.497 12.000,217.000 11.928,217.000 11.833 C 217.000 11.742,216.770 11.667,216.489 11.667 C 216.208 11.667,215.840 11.593,215.672 11.503 C 215.503 11.412,214.833 11.289,214.183 11.229 C 213.532 11.168,213.000 11.055,213.000 10.976 C 213.000 10.898,212.700 10.833,212.333 10.833 C 211.967 10.833,211.667 10.758,211.667 10.667 C 211.667 10.561,210.448 10.500,208.343 10.500 C 206.307 10.500,204.980 10.565,204.917 10.667 M262.167 10.667 C 262.167 10.758,261.867 10.833,261.500 10.833 C 261.133 10.833,260.833 10.908,260.833 11.000 C 260.833 11.092,260.625 11.167,260.370 11.167 C 259.625 11.167,256.631 12.721,255.733 13.575 C 255.632 13.671,255.210 14.032,254.794 14.376 C 254.379 14.720,253.712 15.432,253.311 15.959 C 252.911 16.485,252.455 17.058,252.298 17.232 C 252.141 17.407,251.739 18.120,251.406 18.816 C 251.072 19.513,250.732 20.214,250.650 20.373 C 250.567 20.532,250.500 20.776,250.500 20.914 C 250.500 21.053,250.425 21.167,250.333 21.167 C 250.242 21.167,250.167 21.350,250.167 21.573 C 250.167 21.797,250.103 22.020,250.026 22.068 C 249.948 22.116,249.878 22.394,249.869 22.686 C 249.861 22.978,249.774 23.267,249.676 23.327 C 249.470 23.455,249.504 24.333,249.715 24.333 C 249.793 24.333,249.739 24.451,249.595 24.595 C 249.451 24.739,249.330 24.871,249.325 24.887 C 249.320 24.903,249.284 25.254,249.245 25.667 C 249.178 26.377,249.335 26.168,249.559 25.250 C 249.581 25.158,249.683 24.931,249.786 24.746 C 249.921 24.501,249.922 24.318,249.790 24.079 C 249.621 23.774,249.630 23.768,249.918 24.000 C 250.195 24.222,250.219 24.222,250.135 24.000 C 250.057 23.792,250.213 23.757,251.062 23.793 C 251.624 23.817,253.021 23.854,254.167 23.876 C 256.199 23.916,256.250 23.926,256.250 24.288 C 256.250 24.967,256.582 24.685,256.636 23.961 C 256.664 23.570,256.758 23.179,256.844 23.092 C 256.930 23.005,257.000 22.723,257.000 22.467 C 257.000 22.210,257.075 22.000,257.167 22.000 C 257.258 22.000,257.333 21.775,257.333 21.500 C 257.333 21.225,257.408 21.000,257.500 21.000 C 257.592 21.000,257.667 20.901,257.667 20.780 C 257.667 20.022,260.229 16.333,260.756 16.333 C 260.811 16.333,261.101 16.146,261.402 15.917 C 261.702 15.687,262.035 15.500,262.141 15.500 C 262.247 15.500,262.333 15.425,262.333 15.333 C 262.333 15.242,262.479 15.167,262.657 15.167 C 262.835 15.167,263.027 15.092,263.083 15.000 C 263.140 14.908,263.407 14.833,263.677 14.833 C 263.946 14.833,264.167 14.758,264.167 14.667 C 264.167 14.564,265.028 14.500,266.417 14.500 C 267.806 14.500,268.667 14.564,268.667 14.667 C 268.667 14.758,268.811 14.833,268.987 14.833 C 270.115 14.833,274.000 17.901,274.000 18.791 C 274.000 18.858,274.180 19.288,274.401 19.748 C 274.751 20.478,275.270 21.800,275.562 22.708 C 275.640 22.950,275.859 23.000,276.828 23.000 L 278.000 23.000 278.000 21.833 C 278.000 21.167,277.929 20.667,277.833 20.667 C 277.733 20.667,277.667 19.976,277.667 18.927 C 277.667 17.946,277.594 17.141,277.500 17.083 C 277.402 17.023,277.333 16.026,277.333 14.657 C 277.333 12.468,277.315 12.333,277.010 12.333 C 276.832 12.333,276.640 12.258,276.583 12.167 C 276.527 12.075,275.960 12.000,275.323 12.000 C 274.663 12.000,274.167 11.928,274.167 11.833 C 274.167 11.742,273.937 11.667,273.656 11.667 C 273.375 11.667,273.007 11.593,272.838 11.503 C 272.670 11.412,272.000 11.289,271.349 11.229 C 270.699 11.168,270.167 11.055,270.167 10.976 C 270.167 10.898,269.867 10.833,269.500 10.833 C 269.133 10.833,268.833 10.758,268.833 10.667 C 268.833 10.561,267.611 10.500,265.500 10.500 C 263.389 10.500,262.167 10.561,262.167 10.667 M304.772 10.875 C 304.480 11.963,304.779 13.333,305.309 13.333 C 308.637 13.333,308.989 14.251,309.019 23.019 C 309.031 26.432,309.092 28.326,309.176 27.917 C 309.252 27.550,309.318 26.814,309.324 26.282 C 309.329 25.750,309.417 24.981,309.520 24.574 L 309.706 23.833 311.864 23.833 C 313.051 23.833,314.167 23.911,314.344 24.006 C 314.567 24.125,314.667 24.125,314.667 24.006 C 314.667 23.719,314.970 23.813,315.052 24.125 C 315.094 24.285,315.137 23.277,315.147 21.885 C 315.159 20.399,315.235 19.310,315.333 19.250 C 315.427 19.192,315.500 18.405,315.500 17.460 C 315.500 15.794,315.932 14.167,316.375 14.167 C 316.457 14.167,316.636 14.054,316.774 13.917 C 316.911 13.779,317.202 13.667,317.420 13.667 C 317.638 13.667,318.196 13.585,318.658 13.486 L 319.500 13.306 319.500 11.903 L 319.500 10.500 312.186 10.500 L 304.872 10.500 304.772 10.875 M342.111 10.611 C 341.906 10.816,341.989 12.951,342.208 13.119 C 342.323 13.208,342.977 13.382,343.662 13.507 C 344.886 13.730,345.833 14.299,345.833 14.810 C 345.833 14.914,345.897 15.000,345.975 15.000 C 346.136 15.000,346.323 17.534,346.490 22.000 C 346.554 23.696,346.620 24.875,346.636 24.621 C 346.682 23.920,347.231 23.795,349.958 23.863 L 352.333 23.921 352.333 21.220 C 352.333 19.600,352.400 18.478,352.500 18.417 C 352.592 18.360,352.667 17.792,352.667 17.155 C 352.667 15.603,353.094 14.833,353.955 14.833 C 354.218 14.833,354.515 14.752,354.615 14.652 C 354.745 14.522,354.827 14.522,354.908 14.652 C 354.975 14.761,355.617 14.833,356.510 14.833 C 357.392 14.833,358.000 14.901,358.000 15.000 C 358.000 15.092,358.258 15.167,358.573 15.167 C 358.889 15.167,359.193 15.242,359.250 15.333 C 359.307 15.425,359.476 15.500,359.627 15.500 C 359.997 15.500,361.833 16.357,361.833 16.529 C 361.833 16.605,361.917 16.667,362.020 16.667 C 362.259 16.667,364.833 19.234,364.833 19.472 C 364.833 19.571,365.058 20.034,365.333 20.500 C 365.608 20.966,365.833 21.453,365.833 21.581 C 365.833 21.709,365.908 21.860,366.000 21.917 C 366.092 21.973,366.167 22.225,366.167 22.477 C 366.167 22.728,366.230 23.005,366.308 23.092 C 366.386 23.179,366.543 23.794,366.656 24.458 C 366.770 25.123,366.944 25.667,367.043 25.667 C 367.142 25.667,367.179 25.624,367.126 25.571 C 367.074 25.518,367.091 25.263,367.165 25.004 C 367.249 24.713,367.233 24.466,367.123 24.356 C 366.498 23.732,372.179 23.586,373.017 24.205 C 373.308 24.421,373.439 24.640,373.379 24.813 C 373.312 25.005,373.338 25.034,373.470 24.914 C 373.742 24.666,373.517 23.958,373.205 24.078 C 373.021 24.148,372.997 24.116,373.114 23.962 C 373.336 23.669,373.374 22.711,373.168 22.584 C 373.076 22.527,373.000 22.260,373.000 21.990 C 373.000 21.721,372.925 21.500,372.833 21.500 C 372.742 21.500,372.667 21.275,372.667 21.000 C 372.667 20.725,372.592 20.500,372.500 20.500 C 372.408 20.500,372.333 20.354,372.333 20.177 C 372.333 19.999,372.258 19.807,372.167 19.750 C 372.075 19.693,372.000 19.501,372.000 19.323 C 372.000 19.146,371.925 19.000,371.833 19.000 C 371.742 19.000,371.667 18.850,371.667 18.667 C 371.667 18.483,371.603 18.333,371.525 18.333 C 371.448 18.333,371.249 18.033,371.083 17.667 C 370.918 17.300,370.719 17.000,370.641 17.000 C 370.564 17.000,370.500 16.925,370.500 16.833 C 370.500 16.559,367.783 13.889,367.375 13.761 C 367.169 13.697,367.000 13.574,367.000 13.489 C 367.000 13.403,366.902 13.333,366.781 13.333 C 366.661 13.333,366.402 13.183,366.205 13.000 C 366.008 12.817,365.769 12.667,365.674 12.667 C 365.578 12.667,365.500 12.592,365.500 12.500 C 365.500 12.408,365.354 12.333,365.177 12.333 C 364.999 12.333,364.807 12.258,364.750 12.167 C 364.693 12.075,364.464 12.000,364.240 12.000 C 364.016 12.000,363.833 11.925,363.833 11.833 C 363.833 11.742,363.661 11.667,363.450 11.667 C 363.239 11.667,362.990 11.590,362.897 11.497 C 362.803 11.403,362.225 11.280,361.613 11.222 C 361.001 11.165,360.500 11.054,360.500 10.976 C 360.500 10.897,359.529 10.833,358.343 10.833 C 357.085 10.833,356.143 10.764,356.083 10.667 C 355.968 10.479,342.297 10.425,342.111 10.611 M34.000 10.976 C 34.000 11.055,33.313 11.171,32.474 11.234 C 31.635 11.297,30.815 11.421,30.652 11.508 C 30.489 11.595,30.167 11.667,29.937 11.667 C 29.708 11.667,29.473 11.742,29.417 11.833 C 29.360 11.925,29.060 12.000,28.750 12.000 C 28.440 12.000,28.140 12.075,28.083 12.167 C 28.027 12.258,27.764 12.333,27.500 12.333 C 27.236 12.333,26.973 12.408,26.917 12.500 C 26.860 12.592,26.625 12.667,26.395 12.667 C 25.628 12.667,25.020 14.684,25.667 15.083 C 25.758 15.140,25.833 15.627,25.833 16.167 C 25.833 16.706,25.908 17.193,26.000 17.250 C 26.092 17.307,26.167 17.836,26.167 18.427 C 26.167 19.072,26.237 19.500,26.344 19.500 C 26.458 19.500,26.482 19.756,26.412 20.220 C 26.353 20.616,26.390 21.256,26.494 21.643 L 26.683 22.345 28.383 22.297 L 30.083 22.250 30.137 21.083 C 30.167 20.442,30.097 19.516,29.982 19.026 C 29.820 18.338,29.817 18.064,29.970 17.820 C 30.078 17.646,30.167 17.372,30.167 17.211 C 30.167 16.746,31.068 15.859,31.833 15.570 C 31.971 15.518,32.214 15.406,32.373 15.321 C 32.532 15.236,32.809 15.167,32.988 15.167 C 33.167 15.167,33.360 15.092,33.417 15.000 C 33.473 14.908,33.848 14.833,34.250 14.833 C 34.652 14.833,35.027 14.758,35.083 14.667 C 35.144 14.569,36.137 14.500,37.500 14.500 C 38.863 14.500,39.856 14.569,39.917 14.667 C 39.973 14.758,40.203 14.833,40.427 14.833 C 40.650 14.833,40.833 14.908,40.833 15.000 C 40.833 15.092,40.945 15.167,41.081 15.167 C 41.609 15.167,43.333 16.880,43.333 17.405 C 43.333 17.533,43.412 17.665,43.508 17.697 C 43.613 17.732,43.682 18.409,43.682 19.417 C 43.682 20.424,43.613 21.101,43.508 21.136 C 43.412 21.168,43.333 21.376,43.333 21.597 C 43.333 21.819,43.258 22.000,43.167 22.000 C 43.075 22.000,43.000 22.116,43.000 22.258 C 43.000 22.399,42.818 22.697,42.596 22.919 C 42.374 23.141,42.144 23.475,42.085 23.661 C 42.026 23.848,41.889 24.002,41.780 24.006 C 41.572 24.011,40.833 24.574,40.833 24.726 C 40.833 24.916,41.849 24.450,42.045 24.170 C 42.230 23.906,42.597 23.872,45.460 23.847 C 49.012 23.817,48.983 23.807,48.416 24.894 C 48.279 25.157,48.167 25.443,48.167 25.531 C 48.167 25.619,48.051 25.807,47.909 25.948 C 47.767 26.090,47.699 26.254,47.757 26.312 C 47.877 26.431,48.550 25.648,48.921 24.958 C 49.056 24.706,49.297 24.256,49.456 23.958 C 50.014 22.911,50.162 22.236,50.157 20.750 C 50.152 19.355,49.897 17.841,49.619 17.564 C 49.554 17.498,49.500 17.317,49.500 17.162 C 49.500 16.093,46.514 12.333,45.665 12.333 C 45.574 12.333,45.500 12.258,45.500 12.167 C 45.500 12.075,45.350 12.000,45.167 12.000 C 44.983 12.000,44.833 11.942,44.833 11.870 C 44.833 11.700,43.027 11.167,42.450 11.167 C 42.203 11.167,42.000 11.092,42.000 11.000 C 42.000 10.894,40.556 10.833,38.000 10.833 C 35.800 10.833,34.000 10.898,34.000 10.976 M141.500 13.333 C 141.278 13.477,141.278 13.497,141.500 13.510 C 141.637 13.519,141.896 13.553,142.074 13.586 C 142.536 13.673,142.789 13.467,142.406 13.316 C 141.962 13.142,141.790 13.146,141.500 13.333 M84.450 13.900 C 83.503 14.778,83.431 15.199,83.459 19.711 C 83.487 24.416,83.694 25.450,83.867 21.750 C 84.127 16.158,84.165 15.783,84.547 15.000 C 84.748 14.588,84.988 14.199,85.081 14.136 C 85.902 13.584,85.940 13.511,85.399 13.505 C 85.079 13.502,84.718 13.652,84.450 13.900 M142.750 13.667 C 142.693 13.758,142.769 13.833,142.919 13.833 C 143.641 13.833,144.170 15.128,144.217 17.015 C 144.237 17.786,144.308 18.503,144.376 18.608 C 144.443 18.713,144.543 20.176,144.597 21.858 C 144.651 23.540,144.734 24.954,144.781 25.000 C 144.956 25.170,144.695 16.065,144.503 15.291 C 144.219 14.147,143.096 13.107,142.750 13.667 M154.083 14.333 C 153.951 14.547,154.669 14.547,155.000 14.333 C 155.190 14.210,155.123 14.171,154.718 14.169 C 154.426 14.168,154.140 14.242,154.083 14.333 M156.667 14.667 C 156.667 14.758,156.817 14.833,157.000 14.833 C 157.183 14.833,157.333 14.758,157.333 14.667 C 157.333 14.575,157.183 14.500,157.000 14.500 C 156.817 14.500,156.667 14.575,156.667 14.667 M157.833 14.967 C 157.833 15.040,158.081 15.189,158.384 15.299 C 159.173 15.584,160.030 16.456,160.142 17.087 C 160.174 17.268,160.266 17.458,160.347 17.508 C 160.427 17.558,160.514 17.945,160.538 18.367 C 160.563 18.789,160.640 19.100,160.708 19.058 C 160.777 19.015,160.833 19.280,160.833 19.647 C 160.833 20.014,160.765 20.356,160.681 20.408 C 160.597 20.460,160.528 20.850,160.528 21.274 C 160.528 21.699,160.437 22.103,160.326 22.171 C 160.215 22.240,160.172 22.373,160.230 22.468 C 160.289 22.562,160.223 22.753,160.085 22.891 C 159.947 23.030,159.833 23.261,159.833 23.405 C 159.833 23.549,159.759 23.667,159.668 23.667 C 159.431 23.667,158.476 24.700,158.605 24.818 C 158.664 24.872,158.746 24.823,158.787 24.708 C 158.828 24.594,158.949 24.500,159.057 24.500 C 159.412 24.500,160.500 23.319,160.500 22.934 C 160.500 22.798,160.575 22.640,160.667 22.583 C 160.758 22.527,160.833 22.312,160.833 22.107 C 160.833 21.901,160.914 21.653,161.012 21.555 C 161.347 21.220,161.010 17.000,160.648 17.000 C 160.566 17.000,160.500 16.895,160.500 16.767 C 160.500 16.395,159.327 15.324,158.807 15.220 C 158.547 15.168,158.333 15.059,158.333 14.979 C 158.333 14.899,158.221 14.833,158.083 14.833 C 157.946 14.833,157.833 14.893,157.833 14.967 M102.115 16.875 C 102.168 18.948,102.667 18.997,102.667 16.929 C 102.667 15.676,102.631 15.500,102.373 15.500 C 102.114 15.500,102.084 15.660,102.115 16.875 M100.227 18.521 C 99.778 18.698,100.791 18.675,101.333 18.496 C 101.699 18.375,101.676 18.361,101.144 18.379 C 100.811 18.390,100.398 18.454,100.227 18.521 M98.939 18.746 C 98.127 19.361,98.047 20.166,98.278 25.333 L 98.417 28.417 98.528 25.417 C 98.712 20.473,98.929 19.145,99.596 18.889 C 99.727 18.839,99.833 18.731,99.833 18.649 C 99.833 18.422,99.289 18.481,98.939 18.746 M192.333 24.982 C 192.333 25.094,192.258 25.140,192.167 25.083 C 192.074 25.026,192.000 25.150,192.000 25.361 L 192.000 25.741 192.267 25.360 C 192.414 25.150,192.489 24.933,192.434 24.878 C 192.378 24.823,192.333 24.870,192.333 24.982 M39.333 25.333 C 39.333 25.425,39.441 25.500,39.573 25.500 C 39.706 25.500,39.860 25.425,39.917 25.333 C 39.973 25.242,39.865 25.167,39.677 25.167 C 39.488 25.167,39.333 25.242,39.333 25.333 M156.917 25.333 C 156.860 25.425,156.973 25.500,157.167 25.500 C 157.361 25.500,157.473 25.425,157.417 25.333 C 157.360 25.242,157.248 25.167,157.167 25.167 C 157.086 25.167,156.973 25.242,156.917 25.333 M155.500 25.656 C 155.500 25.742,155.645 25.802,155.822 25.788 C 155.999 25.775,156.107 25.705,156.062 25.632 C 155.948 25.447,155.500 25.467,155.500 25.656 M366.833 26.316 C 366.833 26.581,366.930 26.835,367.048 26.880 C 367.203 26.940,367.244 26.808,367.196 26.398 C 367.116 25.709,366.833 25.645,366.833 26.316 M199.134 26.541 C 199.092 26.760,199.107 27.081,199.168 27.254 C 199.255 27.503,199.301 27.452,199.391 27.003 C 199.453 26.692,199.438 26.371,199.357 26.290 C 199.272 26.205,199.178 26.311,199.134 26.541 M35.907 26.593 C 35.589 26.848,35.589 26.849,35.917 26.698 C 36.100 26.614,36.362 26.503,36.500 26.452 C 36.716 26.372,36.715 26.358,36.490 26.346 C 36.347 26.339,36.085 26.450,35.907 26.593 M47.292 26.680 C 47.131 26.773,47.000 26.959,47.000 27.092 C 47.000 27.225,46.921 27.333,46.823 27.333 C 46.726 27.333,46.697 27.414,46.758 27.512 C 46.826 27.622,46.971 27.542,47.135 27.304 C 47.281 27.091,47.517 26.825,47.659 26.714 C 47.971 26.468,47.699 26.443,47.292 26.680 M367.026 28.292 C 367.025 28.956,367.084 29.500,367.159 29.500 C 367.334 29.500,367.336 27.864,367.162 27.421 C 367.077 27.205,367.028 27.518,367.026 28.292 M155.833 29.667 C 155.833 29.758,155.988 29.833,156.177 29.833 C 156.365 29.833,156.473 29.758,156.417 29.667 C 156.360 29.575,156.206 29.500,156.073 29.500 C 155.941 29.500,155.833 29.575,155.833 29.667 M199.182 30.325 C 199.171 30.849,199.219 31.015,199.344 30.889 C 199.465 30.769,199.469 30.532,199.359 30.148 L 199.197 29.583 199.182 30.325 M367.003 30.458 C 367.004 30.792,367.046 30.853,367.154 30.682 C 367.236 30.553,367.264 30.346,367.217 30.223 C 367.082 29.871,367.000 29.961,367.003 30.458 M199.167 31.417 C 199.167 31.554,199.242 31.667,199.333 31.667 C 199.425 31.667,199.500 31.554,199.500 31.417 C 199.500 31.279,199.425 31.167,199.333 31.167 C 199.242 31.167,199.167 31.279,199.167 31.417 M49.062 39.500 C 49.062 40.462,49.089 40.856,49.123 40.375 C 49.157 39.894,49.157 39.106,49.123 38.625 C 49.089 38.144,49.062 38.537,49.062 39.500 " stroke="none" fill="#0cfa39" fill-rule="evenodd"></path></g></svg>