<?xml version="1.0" encoding="UTF-8"?> <svg xmlns="http://www.w3.org/2000/svg" width="120" height="120" viewBox="0 0 120 120"> <defs> <linearGradient id="instagram-icon-a" x1="50%" x2="50%" y1="99.709%" y2=".777%"> <stop offset="0%" stop-color="#E09B3D"></stop> <stop offset="30%" stop-color="#C74C4D"></stop> <stop offset="60%" stop-color="#C21975"></stop> <stop offset="100%" stop-color="#7024C4"></stop> </linearGradient> <linearGradient id="instagram-icon-b" x1="50%" x2="50%" y1="146.099%" y2="-45.16%"> <stop offset="0%" stop-color="#E09B3D"></stop> <stop offset="30%" stop-color="#C74C4D"></stop> <stop offset="60%" stop-color="#C21975"></stop> <stop offset="100%" stop-color="#7024C4"></stop> </linearGradient> <linearGradient id="instagram-icon-c" x1="50%" x2="50%" y1="658.141%" y2="-140.029%"> <stop offset="0%" stop-color="#E09B3D"></stop> <stop offset="30%" stop-color="#C74C4D"></stop> <stop offset="60%" stop-color="#C21975"></stop> <stop offset="100%" stop-color="#7024C4"></stop> </linearGradient> </defs> <g fill="none"> <path fill="url(#instagram-icon-a)" d="M84.103913,0 L35.686087,0 C16.0086957,0 0,16.0086957 0,35.686087 L0,84.103913 C0,103.781304 16.0086957,119.79 35.686087,119.79 L84.103913,119.79 C103.781304,119.79 119.79,103.781304 119.79,84.103913 L119.79,35.686087 C119.79,16.0086957 103.781087,0 84.103913,0 Z M107.73913,84.103913 C107.73913,97.1571739 97.1571739,107.73913 84.103913,107.73913 L35.686087,107.73913 C22.6328261,107.73913 12.0508696,97.1571739 12.0508696,84.103913 L12.0508696,35.686087 C12.0508696,22.6326087 22.6328261,12.0508696 35.686087,12.0508696 L84.103913,12.0508696 C97.1571739,12.0508696 107.73913,22.6326087 107.73913,35.686087 L107.73913,84.103913 L107.73913,84.103913 Z"></path> <path fill="url(#instagram-icon-b)" d="M59.895,28.9130435 C42.8115217,28.9130435 28.9130435,42.8115217 28.9130435,59.8947826 C28.9130435,76.9780435 42.8115217,90.8767391 59.895,90.8767391 C76.9784783,90.8767391 90.8769565,76.9782609 90.8769565,59.8947826 C90.8769565,42.8113043 76.9784783,28.9130435 59.895,28.9130435 Z M59.895,78.826087 C49.4395652,78.826087 40.963913,70.3504348 40.963913,59.895 C40.963913,49.4395652 49.4397826,40.963913 59.895,40.963913 C70.3504348,40.963913 78.826087,49.4395652 78.826087,59.895 C78.826087,70.3502174 70.3502174,78.826087 59.895,78.826087 Z"></path> <circle cx="90.937" cy="29.146" r="7.424" fill="url(#instagram-icon-c)"></circle> </g> </svg> 