<?xml version="1.0" encoding="UTF-8"?> <svg xmlns="http://www.w3.org/2000/svg" width="126" height="110" viewBox="0 0 126 110"> <path fill="#899DFF" d="M328.447806,12.8714389 L328.031178,11.8098114 C328.018982,11.7793467 327.99558,11.7541802 327.965585,11.7406036 L326.931266,11.2687323 C318.416755,7.38349341 306.40672,6.4248497 295.780721,6 L283.812546,6 C283.677405,6 283.636204,6.1834503 283.75783,6.24206168 L308.341536,18.0825532 C308.480302,18.1491119 308.403503,18.3564041 308.254519,18.3173299 C297.198378,15.4165634 286.02918,13.9482988 275.000067,13.9482988 C264.006551,13.9482988 252.873611,15.4076227 241.85142,18.2898455 C241.701447,18.3289197 241.625306,18.1193095 241.76605,18.0540754 L267.212348,6.24338623 C267.335622,6.1860994 267.29541,6 267.159281,6 L254.219742,6 C243.594073,6.42551197 231.583378,7.38415568 223.069197,11.2693946 L222.034878,11.7412658 C222.004883,11.7548425 221.981151,11.7796778 221.969285,11.8104736 L221.552657,12.8721012 C212.839061,35.0536927 210.363023,72.7103434 213.003537,96.300926 L213.141973,97.5380565 L214.121577,98.301329 C227.733852,108.905683 245.9353,114.357866 257.385656,115.804607 L258.866268,115.9917 C259.3475,116.052629 259.807308,115.773149 259.977387,115.316841 L267.429891,95.3138044 C267.662267,94.6902721 267.266734,94.0094529 266.612126,93.906138 L264.325285,93.5451979 C256.351007,92.2865434 245.052931,88.9499997 235.50509,80.2510117 C235.30139,80.0652434 235.497838,79.7314566 235.755594,79.8274865 C236.531498,80.117232 237.387168,80.4530057 238.268219,80.7987135 C240.427171,81.6460949 242.659955,82.5222853 244.116836,82.8699799 C254.355871,85.3157632 264.738947,86.5562051 274.999407,86.5562051 L274.999407,86.3727548 L275.020832,86.3727548 L275.022151,86.5562051 C285.261845,86.5562051 295.644591,85.3160943 305.882638,82.8699799 C307.340178,82.5219542 309.572963,81.6460949 311.732244,80.7983823 C312.612635,80.4526746 313.467976,80.1169009 314.24355,79.8274865 C314.501306,79.7314566 314.697754,80.0655746 314.494055,80.2510117 C304.978186,88.9115877 293.665937,92.2395218 285.673859,93.4971829 L283.387677,93.8567985 C282.73307,93.9597823 282.336877,94.6399392 282.568924,95.2634715 L290.022746,115.315847 C290.192496,115.772486 290.652633,116.052298 291.133865,115.991368 L292.615796,115.804276 C304.065493,114.357535 322.265622,108.905352 335.878226,98.3009978 L336.85783,97.5377254 L336.996267,96.3005949 C339.63711,72.7103434 337.161072,35.0533616 328.447806,12.8714389 Z M250.676094,67.3310111 C241.419629,68.16018 233.697173,60.4026166 234.521531,51.1032759 C235.153724,43.9748741 240.867201,38.2342705 247.963066,37.5984861 C257.219532,36.7693172 264.941987,44.5268807 264.11763,53.8262214 C263.485107,60.9546231 257.77163,66.6952267 250.676094,67.3310111 Z M302.038056,67.3310111 C292.78159,68.16018 285.059135,60.4026166 285.883492,51.1032759 C286.515686,43.9748741 292.229162,38.2342705 299.325028,37.5984861 C308.581163,36.7693172 316.303949,44.5268807 315.479592,53.8262214 C314.847068,60.9546231 309.133591,66.6952267 302.038056,67.3310111 Z" transform="translate(-212 -6)"></path> </svg> 