<?xml version="1.0" standalone="no"?>
<!DOCTYPE svg PUBLIC "-//W3C//DTD SVG 20010904//EN"
 "http://www.w3.org/TR/2001/REC-SVG-20010904/DTD/svg10.dtd">
<svg version="1.0" xmlns="http://www.w3.org/2000/svg"
 width="1280.000000pt" height="183.000000pt" viewBox="0 0 1280.000000 183.000000"
 preserveAspectRatio="xMidYMid meet">

<g transform="translate(0.000000,183.000000) scale(0.100000,-0.100000)"
fill="#000000" stroke="none">
<path d="M4290 810 l0 -490 290 0 290 0 0 100 0 100 100 0 100 0 0 101 0 102
-52 -7 c-29 -3 -74 -6 -100 -6 l-48 0 0 -95 0 -95 -195 0 -195 0 0 93 0 94
113 6 c61 4 149 7 195 7 l82 0 0 95 0 95 100 0 100 0 0 100 0 100 -100 -6
-100 -7 0 101 0 102 -290 0 -290 0 0 -490z m580 196 l0 -93 -187 -5 c-104 -3
-191 -4 -195 -1 -5 2 -8 47 -8 99 l0 94 195 0 195 0 0 -94z"/>
<path d="M5750 810 l0 -490 290 0 290 0 0 100 0 100 -190 0 -190 0 0 95 0 95
190 0 190 0 0 100 0 100 -190 0 -190 0 0 95 0 95 190 0 190 0 0 100 0 100
-290 0 -290 0 0 -490z"/>
</g>
</svg>
